<?xml version="1.0" encoding="UTF-8" standalone="no"?>
<!-- Created with Inkscape (http://www.inkscape.org/) -->

<svg
   width="397.80109"
   height="373.36658"
   viewBox="0 0 105.25153 98.786576"
   version="1.1"
   id="svg1"
   xml:space="preserve"
   xmlns:inkscape="http://www.inkscape.org/namespaces/inkscape"
   xmlns:sodipodi="http://sodipodi.sourceforge.net/DTD/sodipodi-0.dtd"
   xmlns="http://www.w3.org/2000/svg"
   xmlns:svg="http://www.w3.org/2000/svg"><sodipodi:namedview
     id="namedview1"
     pagecolor="#ffffff"
     bordercolor="#000000"
     borderopacity="0.25"
     inkscape:showpageshadow="2"
     inkscape:pageopacity="0.0"
     inkscape:pagecheckerboard="0"
     inkscape:deskcolor="#d1d1d1"
     inkscape:document-units="mm"><inkscape:page
       x="0"
       y="0"
       width="105.25153"
       height="98.786575"
       id="page2"
       margin="0"
       bleed="0" /></sodipodi:namedview><defs
     id="defs1" /><g
     inkscape:label="Capa 1"
     inkscape:groupmode="layer"
     id="layer1"
     transform="translate(-11.091271,-17.481321)"><path
       style="fill:#ffffff;stroke-width:0.499768"
       d="m 229.80297,430.83544 c -1.63103,-0.74542 -2.19473,-1.33602 -2.56904,-2.69167 -1.08439,-3.92734 2.11389,-12.15236 6.31758,-16.24687 1.34364,-1.30876 2.74796,-2.93218 3.12069,-3.6076 0.50265,-0.91083 0.76647,-5.03624 1.02138,-15.9712 0.34455,-14.78081 0.79112,-19.50077 2.25974,-23.8843 1.20096,-3.58457 4.3627,-9.43183 8.62672,-15.95403 6.8315,-10.44939 7.1356,-11.35875 3.95415,-11.82404 -0.90778,-0.13276 -5.02011,-0.4978 -9.13851,-0.8112 -17.54097,-1.33482 -49.28614,-6.8649 -68.72666,-11.97235 -3.16104,-0.83048 -9.68301,-2.18055 -14.49328,-3.00017 -10.34446,-1.76258 -13.71463,-2.69692 -15.24387,-4.22615 -2.92604,-2.92604 -3.43494,-13.87882 -3.41553,-73.51044 0.009,-26.66264 0.28608,-64.10778 0.61644,-83.21142 0.64242,-37.14881 0.77073,-38.76169 3.18636,-40.05449 2.02602,-1.08429 8.20346,-1.36502 19.46981,-0.88478 20.4014,0.86964 34.71405,3.03212 52.61025,7.94883 18.3851,5.05103 24.57304,5.75545 46.23712,5.26353 17.07954,-0.38782 17.98472,-0.30009 28.56505,2.76863 8.3635,2.42575 15.80543,4.12633 23.6784,5.41082 9.73986,1.58908 13.53135,2.6675 13.92989,3.96209 0.14261,0.46321 0.62914,2.97871 1.0812,5.59 0.99071,5.72275 0.75391,18.15667 -0.56154,29.48633 -1.02687,8.84418 -0.76664,15.92725 0.94637,25.75836 2.24931,12.909 2.97929,21.94816 2.64196,32.71453 -0.16795,5.36002 -0.64263,11.76954 -1.05484,14.2434 -1.76214,10.57498 -2.42265,21.5343 -3.51717,58.357 -0.72941,24.53935 -1.19317,31.38082 -2.26263,33.37914 -0.82495,1.54142 -2.17779,1.95771 -5.54917,1.70754 -14.70808,-1.09137 -29.05984,-1.82458 -31.82663,-1.62596 -4.71503,0.33847 -6.90708,1.64968 -13.49714,8.07356 -7.04674,6.86905 -13.38531,14.68682 -15.76743,19.44699 -3.04178,6.07833 -3.34385,8.02067 -3.82508,24.59499 -0.43878,15.11218 -0.70781,17.32769 -2.4168,19.90272 -2.57651,3.88218 -13.81967,10.10643 -20.80897,11.51993 -0.97342,0.19687 -2.23221,-0.0317 -3.58882,-0.65172 z m 15.57804,-172.93856 c 0.37146,-1.17038 -0.069,-2.24626 -2.25744,-5.5139 -2.58206,-3.85537 -3.48468,-5.73955 -3.48468,-7.27414 0,-0.72961 1.14702,-4.05349 2.54892,-7.38641 3.0546,-7.26206 3.5226,-9.32832 2.11284,-9.32832 -2.64483,0 -7.83898,5.8843 -9.19618,10.41809 -0.45346,1.51477 -1.02251,2.31348 -1.88076,2.63978 -1.51204,0.57488 -11.5605,-0.2577 -19.32288,-1.60103 -6.89538,-1.19328 -6.74688,-1.19847 -6.74688,0.23594 0,1.44033 2.52328,3.78884 5.92026,5.51023 2.99862,1.51951 9.00183,2.77899 13.4247,2.81652 6.18683,0.0525 7.13701,0.40138 8.77705,3.22278 3.51174,6.0413 9.07975,9.4909 10.10505,6.26046 z m 31.36827,-23.80621 c 1.1762,-0.82385 2.74017,-2.59098 3.51009,-3.96607 1.24782,-2.22858 1.37455,-2.8897 1.24943,-6.51778 -0.12126,-3.51582 -0.31673,-4.27024 -1.51247,-5.83743 -2.89749,-3.79757 -6.34651,-5.06541 -10.56605,-3.88401 -4.82466,1.35082 -7.99595,5.81624 -7.98023,11.23677 0.0131,4.506 1.97758,7.81 5.92598,9.96652 2.39,1.30536 6.74711,0.84144 9.37325,-0.998 z m -85.88158,-9.39432 c 1.32027,-0.55164 2.05158,-1.45529 3.46625,-4.28304 0.98612,-1.97114 1.93627,-4.34788 2.11144,-5.28164 0.67292,-3.58696 -4.14946,-10.11326 -8.29834,-11.23044 -2.70777,-0.72912 -6.42654,0.10194 -8.58565,1.91871 -5.7625,4.84883 -4.09195,16.7775 2.65107,18.9301 2.45503,0.78373 6.71424,0.75731 8.65523,-0.0537 z"
       id="path23"
       transform="scale(0.26458333)" /><path
       style="fill:#ffffff;stroke-width:0.499768"
       d="m 107.07896,288.84923 c -8.873205,-1.49381 -14.83408,-5.87424 -23.439928,-17.22517 -1.250389,-1.64923 -2.880819,-3.96684 -3.623178,-5.15023 l -1.349745,-2.15162 1.072863,-1.73593 c 0.590074,-0.95476 2.767016,-3.80976 4.837649,-6.34444 2.070633,-2.53468 4.124352,-5.36109 4.56382,-6.28092 0.779394,-1.63131 0.759343,-1.74406 -0.815806,-4.58749 -0.88816,-1.60329 -1.614837,-3.14839 -1.614837,-3.43355 0,-0.67155 3.37408,-4.05018 4.044721,-4.05018 0.868162,0 5.815188,4.96342 6.432551,6.45387 0.503373,1.21525 0.365118,1.97015 -1.017372,5.55506 -0.87995,2.28179 -1.599908,4.98924 -1.599908,6.01657 0,4.2281 5.233182,11.20762 9.51743,12.69344 5.68685,1.97226 12.72728,1.31673 18.49788,-1.72231 1.93609,-1.01963 2.98938,-1.32708 3.34174,-0.97541 0.72616,0.72472 1.00074,18.08138 0.30656,19.37846 -0.75819,1.41669 -5.02203,2.87632 -10.28917,3.52227 -4.97343,0.60994 -5.45342,0.61197 -8.86527,0.0376 z"
       id="path24"
       transform="scale(0.26458333)" /><path
       style="fill:#ffffff;stroke-width:0.499768"
       d="m 148.93095,386.63083 c -5.31352,-2.51101 -13.54093,-9.3184 -18.59917,-15.38904 -4.02357,-4.82888 -4.41686,-5.66452 -3.39789,-7.21966 2.46156,-3.75681 6.31177,-4.04802 15.79698,-1.19478 6.33714,1.90627 6.67364,1.95609 7.59495,1.12447 0.5302,-0.47859 3.40453,-4.36032 6.38738,-8.62607 9.18319,-13.13277 14.29905,-18.4875 17.65286,-18.47712 1.69231,0.005 6.64375,3.41434 10.90368,7.50726 1.89945,1.82499 2.29721,2.49274 2.04937,3.44046 -0.16914,0.64678 -3.2244,4.23812 -6.78948,7.98075 -7.34417,7.70996 -13.10298,14.72402 -17.48651,21.29807 -1.64954,2.47385 -4.13809,6.01596 -5.5301,7.87135 -3.00185,4.00114 -3.48062,4.0951 -8.58207,1.68431 z"
       id="path25"
       transform="scale(0.26458333)" /><path
       style="fill:#ffffff;stroke-width:0.499768"
       d="m 335.7577,324.74456 c 0.49075,-33.98205 1.80512,-61.51098 3.65755,-76.60569 1.08921,-8.87557 0.67435,-19.70522 -1.3403,-34.9877 -1.86357,-14.13637 -2.10139,-24.25415 -0.81058,-34.48401 1.04961,-8.31822 1.05294,-18.33521 0.009,-26.13995 l -0.82274,-6.14922 1.61527,-1.66654 c 0.8884,-0.9166 4.01304,-2.97159 6.94363,-4.56664 7.32853,-3.98876 15.16675,-8.63792 22.53078,-13.3639 3.41414,-2.19107 9.14898,-5.66614 12.74409,-7.72237 3.59511,-2.05623 10.17036,-6.0638 14.61167,-8.90571 8.30961,-5.31715 13.42111,-8.11062 13.92283,-7.60891 0.53114,0.53114 1.21479,12.06361 1.72772,29.14502 0.95136,31.68149 0.61959,41.11823 -1.80976,51.47614 -1.72277,7.34528 -2.05969,15.80238 -0.9757,24.49148 2.1107,16.91901 3.11446,43.96745 2.37381,63.9675 -0.27483,7.42156 -0.65305,13.88731 -0.84048,14.36834 -0.55732,1.43034 -1.15918,1.00704 -1.76452,-1.24102 -1.40714,-5.22569 -7.52185,-16.37096 -13.64564,-24.87187 -3.57234,-4.95903 -9.41883,-11.26564 -11.38749,-12.28368 -1.33714,-0.69146 -3.92205,-0.98178 -3.92205,-0.4405 0,0.76412 2.54553,5.10579 6.02551,10.27712 12.19251,18.11835 15.39945,25.25135 21.76377,48.40768 2.19794,7.99711 3.55884,12.08405 4.27914,12.85077 1.06372,1.13228 3.13839,2.22796 11.98175,6.32784 5.51162,2.55524 8.66958,5.14099 10.03477,8.21648 l 0.94937,2.13874 -1.22193,2.66904 c -1.47767,3.22765 -4.25569,6.40828 -6.54661,7.4954 -2.38986,1.13406 -7.46418,1.02167 -11.60408,-0.25701 -1.88403,-0.58192 -6.06484,-2.38109 -9.29067,-3.99815 -3.22583,-1.61706 -6.33991,-2.94011 -6.92017,-2.94011 -1.25863,0 -3.26412,1.34079 -6.87198,4.59433 -1.46523,1.32133 -2.85568,2.40243 -3.08987,2.40243 -0.61079,0 -1.18015,-1.99645 -1.06895,-3.74827 0.0523,-0.82461 0.76464,-3.44433 1.58287,-5.82158 4.6866,-13.61616 2.35807,-27.98011 -7.76224,-47.88272 -5.81602,-11.43779 -9.19543,-15.70419 -15.59955,-19.69398 -2.81351,-1.75282 -3.63325,-1.70721 -3.63325,0.20214 0,2.05077 1.17033,4.19293 5.99605,10.97499 2.2492,3.16104 4.95736,7.20916 6.01813,8.99583 3.71305,6.25396 9.3886,22.84776 8.18643,23.93491 -0.25287,0.22868 -5.07013,3.86093 -10.70502,8.07167 -12.27404,9.17193 -18.80492,14.40192 -24.4394,19.57127 -2.3493,2.15537 -5.74275,4.66351 -7.70398,5.69411 l -3.50521,1.84193 z"
       id="path26"
       transform="scale(0.26458333)" /><path
       style="fill:#ffffff;stroke-width:0.499768"
       d="m 332.05,141.1651 c -1.26246,-0.89825 -3.08051,-1.42381 -6.95383,-2.01017 -10.45058,-1.58205 -17.8928,-3.23247 -25.73031,-5.70605 -4.3954,-1.38722 -9.34311,-2.74684 -10.9949,-3.02137 -1.6518,-0.27452 -12.89868,-0.57099 -24.99307,-0.6588 -24.4762,-0.17771 -22.66956,0.0136 -40.23135,-4.25975 -24.49032,-5.95925 -39.1372,-8.20727 -58.90075,-9.04015 -5.70295,-0.24033 -10.39948,-0.65487 -10.68797,-0.94336 -0.77814,-0.77814 2.87078,-2.90584 16.02461,-9.34406 6.41061,-3.13771 13.71972,-6.869887 16.24247,-8.293728 7.03597,-3.971108 13.57984,-7.116456 19.0801,-9.170968 9.08599,-3.393892 12.3988,-4.788364 22.19423,-9.342299 5.33502,-2.48027 10.59212,-4.824329 11.68245,-5.209019 4.39239,-1.549727 14.9746,-0.517319 44.08717,4.301177 22.13298,3.663286 23.94618,3.870637 39.48169,4.515006 14.35829,0.595541 19.98188,1.286352 30.18154,3.707555 10.19619,2.420382 19.257,4.02621 32.56389,5.771233 12.07889,1.583986 16.48307,2.363859 16.4442,2.911866 -0.0972,1.370737 -28.38898,20.662037 -51.45249,35.083897 -6.38345,3.99164 -9.82157,6.50552 -13.24386,9.68363 -2.44255,2.26829 -2.90724,2.36768 -4.79382,1.02536 z"
       id="path27"
       transform="scale(0.26458333)" /><path
       style="fill:#502d16;stroke:#502d16;stroke-width:1.63276;stroke-dasharray:none;stroke-opacity:1"
       d="m 57.473353,244.21141 c -2.473853,-1.18467 -4.804148,-2.52654 -5.178433,-2.98192 -1.19334,-1.4519 -0.179283,-3.27021 4.574182,-8.20198 10.314999,-10.70192 31.664241,-30.22522 34.86568,-31.88371 0.973267,-0.5042 2.813116,-0.58126 7.740764,-0.32423 7.742904,0.40387 7.925564,0.61206 4.302044,4.90319 -5.076622,6.01196 -40.456847,40.68504 -41.481889,40.6528 -0.178439,-0.006 -2.348495,-0.97948 -4.822348,-2.16415 z m -0.312804,-2.54091 c 3.239641,-1.67528 10.540198,-10.946 10.553364,-13.40134 0.01029,-1.91918 -1.632752,-0.64421 -5.152396,3.99815 -2.031868,2.68001 -4.738835,5.83318 -6.015482,7.00705 -1.276647,1.17387 -2.321176,2.35457 -2.321176,2.62378 0,0.70532 1.331161,0.6021 2.93569,-0.22764 z m 19.538712,-18.77099 c 3.524052,-4.81184 7.105632,-9.40934 7.959068,-10.21666 1.791895,-1.69509 2.10831,-3.77971 0.573705,-3.77971 -1.165397,0 -4.805583,4.40312 -10.122745,12.24433 -6.710954,9.89662 -9.145487,14.56687 -6.10404,11.70958 0.707655,-0.66481 4.16996,-5.1457 7.694012,-9.95754 z m 11.141544,-7.47936 c 4.680949,-4.46917 9.364127,-9.81357 9.364127,-10.68626 0,-1.78335 -5.287875,2.7035 -11.367179,9.64524 -4.25292,4.85625 -5.013016,6.01868 -3.935533,6.01868 0.398773,0 3.071136,-2.23995 5.938585,-4.97766 z"
       id="path28"
       transform="scale(0.26458333)" /><path
       style="fill:#502d16;stroke:#502d16;stroke-width:1.63276;stroke-dasharray:none;stroke-opacity:1"
       d="m 56.135658,261.37514 c -6.607559,-0.80478 -8.048332,-2.57193 -7.807247,-9.57584 0.08201,-2.38257 0.280183,-4.46273 0.440379,-4.62259 0.591275,-0.59002 7.847293,2.82074 10.604384,4.98468 3.14702,2.46999 6.634627,7.24557 6.171958,8.45127 -0.170832,0.44518 -0.90252,0.76615 -1.746519,0.76615 -0.798886,0 -2.099095,0.0906 -2.889353,0.20137 -0.790259,0.11076 -2.938379,0.0185 -4.773602,-0.20504 z"
       id="path29"
       transform="scale(0.26458333)" /><path
       style="fill:#000000"
       d="m 59.815076,115.70539 c -0.690492,-0.30058 -1.373822,-0.85502 -1.518511,-1.23207 -0.14469,-0.37706 -0.263072,-1.13206 -0.263072,-1.67778 0,-0.54573 0.282029,-1.66722 0.626731,-2.49221 0.344703,-0.82499 1.00771,-1.90551 1.473349,-2.40116 0.742909,-0.79079 0.836915,-1.34266 0.767403,-4.50514 -0.06082,-2.76698 0.12224,-4.204683 0.788251,-6.190722 0.477106,-1.422727 1.219386,-3.159771 1.64951,-3.860098 0.782046,-1.27332 0.782046,-1.27332 -1.788598,-1.720979 -1.413854,-0.246212 -3.336216,-0.447658 -4.271915,-0.447658 -1.00201,0 -2.50471,0.407133 -3.656001,0.990537 -1.075101,0.544795 -3.002069,1.947745 -4.282151,3.117668 -1.280082,1.169923 -3.396717,3.717402 -4.703633,5.661062 -1.306917,1.94367 -2.540277,3.63533 -2.7408,3.75926 -0.200524,0.12394 -1.324845,-0.0598 -2.498491,-0.40837 -1.666421,-0.49487 -2.741897,-1.22858 -4.909207,-3.34916 -2.313642,-2.263748 -2.775304,-2.936237 -2.775304,-4.042698 0,-0.729983 0.185195,-1.673282 0.411544,-2.096219 0.226349,-0.422937 1.0919,-0.97262 1.923447,-1.221519 1.195834,-0.357936 1.8739,-0.327731 3.243499,0.144488 1.731597,0.597029 1.731597,0.597029 2.994491,-1.282712 0.694592,-1.033858 1.793175,-2.445432 2.441296,-3.136831 1.178402,-1.25709 1.178402,-1.25709 -1.043414,-1.486402 -1.221999,-0.126121 -2.846776,-0.525874 -3.610615,-0.88834 -0.76384,-0.362465 -1.596269,-1.114373 -1.849842,-1.670907 -0.253574,-0.556534 -0.461044,-2.734408 -0.461044,-4.83972 0,-2.105313 -0.06795,-3.827841 -0.150993,-3.827841 -0.08305,0 -1.028365,0.388103 -2.100708,0.862452 -1.206343,0.533622 -2.750845,0.855253 -4.050916,0.84357 -1.264651,-0.01136 -2.729606,-0.33947 -3.679601,-0.824121 -0.86812,-0.442882 -2.414716,-1.699329 -3.43688,-2.792104 -1.022164,-1.092776 -2.061774,-2.366724 -2.310244,-2.830996 -0.392692,-0.733752 -0.901039,-0.862846 -3.887598,-0.987254 -2.618837,-0.10909 -3.607153,-0.314482 -4.156311,-0.863766 -0.534651,-0.534774 -0.757102,-1.527126 -0.862476,-3.847498 -0.141998,-3.126856 -0.141998,-3.126856 6.003132,-9.154163 6.145129,-6.027307 6.145129,-6.027307 8.921856,-5.769237 1.5272,0.141938 3.228509,0.429836 3.780688,0.639774 0.808453,0.307374 1.097128,0.830493 1.482393,2.686302 0.318147,1.532509 0.347283,2.591507 0.08697,3.160988 -0.215305,0.471015 -1.259414,1.82081 -2.320242,2.999545 -1.897349,2.108233 -1.929692,2.189752 -1.984906,5.002868 -0.04779,2.434605 0.06378,2.943703 0.75053,3.424718 0.443662,0.310753 1.285437,0.565006 1.870611,0.565006 0.585173,0 1.774622,-0.516283 2.643218,-1.147296 0.868597,-0.631013 1.776693,-1.405454 2.017992,-1.720979 0.241298,-0.315526 0.696851,-3.489224 1.01234,-7.052663 0.315489,-3.563438 0.573617,-11.034512 0.573617,-16.602385 0,-8.687221 0.09563,-10.295748 0.674089,-11.338214 0.37075,-0.668145 1.292952,-1.809375 2.04934,-2.536067 0.756387,-0.726691 2.877503,-1.954828 4.71359,-2.729191 1.836088,-0.774364 4.156314,-1.970715 5.15606,-2.658558 0.999745,-0.687842 3.313043,-1.758547 5.140662,-2.379342 1.827619,-0.620796 4.522515,-1.790975 5.988658,-2.600399 2.345058,-1.294653 3.002634,-1.47142 5.466639,-1.469522 1.540509,0.0012 4.961417,0.366859 7.602017,0.812605 2.6406,0.445747 4.993261,0.929216 5.228137,1.074377 0.234875,0.145161 3.358802,0.405978 6.94206,0.579592 4.763764,0.230812 7.222525,0.540451 9.1471,1.151923 1.447647,0.459943 4.99204,1.100775 7.876427,1.424071 3.81305,0.427386 5.52604,0.796143 6.27651,1.351153 0.56769,0.419838 1.29389,1.293617 1.61377,1.941732 0.42553,0.862182 0.62447,3.297269 0.74134,9.074647 0.0879,4.342941 0.1478,8.888673 0.1332,10.101627 -0.0146,1.212954 -0.32526,3.104685 -0.69035,4.203848 -0.56984,1.715632 -0.59867,2.492412 -0.20374,5.488418 0.25302,1.919467 0.5034,7.407698 0.5564,12.196069 0.0845,7.638199 0.004,8.954485 -0.6555,10.73081 -0.64022,1.724057 -0.68177,2.28476 -0.27985,3.776291 0.3942,1.462851 0.71841,1.849684 1.96667,2.346534 0.82206,0.327209 1.93438,0.814534 2.47183,1.082945 0.53744,0.26841 1.3112,1.034683 1.71946,1.702827 0.40826,0.668145 0.74298,1.724967 0.74381,2.348493 8.3e-4,0.623526 -0.26379,1.646727 -0.58805,2.27378 -0.32426,0.627052 -1.21735,1.437999 -1.98465,1.802104 -0.76729,0.364104 -2.06996,0.662007 -2.89482,0.662007 -0.82485,0 -2.35709,-0.430627 -3.40498,-0.956949 -1.86912,-0.938806 -1.92291,-0.942645 -2.83699,-0.202468 -0.51246,0.414965 -1.42177,0.754481 -2.0207,0.754481 -0.59893,0 -1.30763,-0.218665 -1.57489,-0.485923 -0.26725,-0.267258 -0.47946,-1.132809 -0.47157,-1.923447 0.008,-0.790638 0.27477,-1.893077 0.59305,-2.449865 0.31829,-0.556787 0.58517,-1.606589 0.59306,-2.332893 0.0143,-1.320553 0.0143,-1.320553 -2.921436,0.783889 -1.614683,1.157444 -3.860265,2.961563 -4.990181,4.009155 -1.129916,1.047592 -2.82628,2.2985 -3.769698,2.779796 -0.943418,0.481295 -2.478929,0.895627 -3.412246,0.920736 -0.933318,0.02511 -3.712389,-0.101088 -6.175714,-0.280438 -4.478773,-0.326093 -4.478773,-0.326093 -6.586195,1.781329 -1.159081,1.159082 -2.592884,3.052715 -3.186228,4.208077 -1.002182,1.95144 -1.072778,2.42672 -0.993928,6.69141 0.08488,4.59077 0.08488,4.59077 -1.431653,5.97986 -0.834093,0.764 -2.424347,1.84147 -3.533898,2.39438 -1.109551,0.55292 -2.391585,0.99817 -2.848965,0.98945 -0.45738,-0.009 -1.396548,-0.26179 -2.087039,-0.56238 z m 4.609625,-2.41502 c 1.050492,-0.53272 2.267615,-1.36432 2.704718,-1.848 0.686902,-0.7601 0.797443,-1.49403 0.814708,-5.40917 0.01673,-3.79331 0.166081,-4.84804 0.918644,-6.487487 0.510351,-1.111792 2.129393,-3.188459 3.746891,-4.805957 2.848223,-2.848224 2.848223,-2.848224 7.195222,-2.519001 2.390849,0.181073 4.984772,0.33932 5.764275,0.351659 1.417276,0.02244 1.417276,0.02244 1.675137,-10.910842 0.141824,-6.013303 0.473324,-11.844385 0.736666,-12.95796 0.263343,-1.113574 0.498153,-3.573562 0.521799,-5.466639 0.02365,-1.893077 -0.292299,-5.264171 -0.7021,-7.49132 -0.653613,-3.552185 -0.685747,-4.525512 -0.261722,-7.927461 0.265855,-2.132955 0.364159,-4.892424 0.218453,-6.132154 -0.145706,-1.23973 -0.379702,-2.439776 -0.519992,-2.66677 -0.14029,-0.226993 -1.700828,-0.613801 -3.467863,-0.859573 -1.767035,-0.245772 -4.609798,-0.888173 -6.317251,-1.427557 -2.763306,-0.872928 -3.589248,-0.955582 -7.515966,-0.752142 -2.487095,0.128855 -5.657179,0.03343 -7.267077,-0.218759 -1.570565,-0.246024 -4.028735,-0.822096 -5.462602,-1.28016 -1.433867,-0.458065 -4.33995,-1.08976 -6.457963,-1.403767 -2.118012,-0.314007 -5.732992,-0.614134 -8.033288,-0.666949 -3.267002,-0.07501 -4.262673,0.03089 -4.549332,0.483886 -0.201837,0.318952 -0.394944,0.853245 -0.429128,1.187318 -0.03418,0.334072 -0.135549,5.527379 -0.225258,11.540682 -0.08971,6.013303 -0.178358,14.577705 -0.197,19.032003 -0.01864,4.454299 0.04204,10.696528 0.134841,13.871621 0.132759,4.542063 0.304282,5.908444 0.804482,6.408644 0.365681,0.365682 1.875576,0.791426 3.554364,1.002222 1.605239,0.201561 4.077933,0.724551 5.494876,1.162199 1.416942,0.437649 5.640902,1.292069 9.386578,1.898712 3.745676,0.606643 7.675871,1.089995 8.733767,1.074116 1.057896,-0.01588 1.923447,0.151913 1.923447,0.372871 0,0.220958 -0.721943,1.432923 -1.604317,2.693255 -0.882374,1.260333 -1.902479,3.111509 -2.2669,4.113727 -0.469386,1.29089 -0.656596,3.121003 -0.642049,6.276513 0.01969,4.27222 -0.02071,4.4874 -0.988382,5.26417 -0.554904,0.44543 -1.257798,1.53759 -1.561987,2.42702 -0.367343,1.07409 -0.425247,1.85599 -0.172429,2.32838 0.209353,0.39118 0.835842,0.71124 1.392197,0.71124 0.556356,0 1.871049,-0.43586 2.921541,-0.96857 z M 62.922119,67.434195 c -0.461595,-0.586823 -0.839263,-1.224597 -0.839263,-1.417277 0,-0.19268 -0.956662,-0.35061 -2.125915,-0.350957 -1.221625,-3.61e-4 -2.718519,-0.301792 -3.519078,-0.708638 -0.76624,-0.389405 -1.473351,-0.961575 -1.571359,-1.271488 -0.1372,-0.433844 0.09016,-0.497539 0.988226,-0.276861 0.641533,0.15764 2.296645,0.386327 3.678027,0.508193 2.425385,0.213968 2.520392,0.186563 2.767581,-0.798314 0.140786,-0.560939 0.695393,-1.4327 1.232459,-1.937247 0.537066,-0.504547 1.089172,-0.80467 1.226902,-0.666939 0.137731,0.13773 -0.134883,1.046346 -0.605808,2.019147 -0.470924,0.9728 -0.856226,2.051065 -0.856226,2.396143 0,0.345079 0.364442,1.090729 0.809872,1.657001 0.44543,0.566273 0.809873,1.228621 0.809873,1.471886 0,0.243265 -0.260107,0.4423 -0.578014,0.4423 -0.317908,0 -0.955683,-0.480127 -1.417277,-1.066949 z m 7.540715,-5.457028 c -0.402098,-0.233919 -0.896104,-0.859335 -1.097792,-1.389813 -0.228369,-0.600657 -0.209986,-1.414067 0.04873,-2.156224 0.24489,-0.702492 0.888269,-1.387573 1.567223,-1.668805 0.850405,-0.352249 1.370888,-0.359827 1.989118,-0.02896 0.460532,0.246469 1.03586,0.81908 1.278506,1.272468 0.242646,0.453388 0.323504,1.360092 0.179685,2.014898 -0.14382,0.654805 -0.652049,1.464113 -1.1294,1.798462 -0.47735,0.33435 -1.146251,0.602367 -1.486447,0.595594 -0.340196,-0.0068 -0.947527,-0.203702 -1.349625,-0.43762 z M 47.303785,58.783893 c -0.402502,-0.44476 -0.715743,-1.374182 -0.696091,-2.065382 0.01965,-0.691201 0.348973,-1.602855 0.731823,-2.025899 0.382849,-0.423045 1.201286,-0.769172 1.818749,-0.769172 0.730518,0 1.415809,0.372681 1.961921,1.06695 0.461594,0.586822 0.839263,1.324756 0.839263,1.639854 0,0.315097 -0.278012,1.110519 -0.617804,1.767604 -0.49589,0.958945 -0.883042,1.194699 -1.961921,1.194699 -0.829177,0 -1.624484,-0.309801 -2.07594,-0.808654 z m -4.252933,41.244857 c 1.002217,-1.579191 3.005583,-4.05538 4.451923,-5.502646 2.62971,-2.631392 2.62971,-2.631392 1.214809,-3.828053 -0.778196,-0.658164 -1.720586,-1.36553 -2.0942,-1.571924 -0.501134,-0.276839 -1.001344,-0.104278 -1.907181,0.657933 -0.675335,0.568258 -2.069192,2.298705 -3.097459,3.84544 -1.028267,1.546734 -1.95801,2.812244 -2.066095,2.812244 -0.108085,0 -1.10688,-0.297764 -2.219545,-0.661698 -1.573213,-0.514572 -2.242894,-0.561521 -3.011875,-0.21115 -0.543866,0.247802 -0.988847,0.739672 -0.988847,1.093044 0,0.353372 0.956662,1.592261 2.125915,2.753086 1.169254,1.160824 2.76369,2.420344 3.543193,2.798924 0.779502,0.37858 1.599498,0.68782 1.822213,0.68719 0.222715,-6.3e-4 1.224932,-1.2932 2.227149,-2.87239 z m 46.89148,-8.610234 c 0.601406,-0.312912 1.549019,-1.059235 2.105807,-1.658497 0.556787,-0.599262 2.743443,-2.37378 4.859235,-3.943375 2.115792,-1.569594 3.985586,-2.975509 4.155096,-3.124254 0.16952,-0.148746 -0.0382,-1.27741 -0.46167,-2.508144 -0.42343,-1.230733 -1.055367,-2.789764 -1.404293,-3.464514 -0.348927,-0.67475 -1.280057,-2.072657 -2.069177,-3.106462 -0.789121,-1.033804 -1.434765,-2.172356 -1.434765,-2.530116 0,-0.579251 0.121078,-0.571138 1.105826,0.07409 0.608204,0.398511 1.433015,1.102798 1.832913,1.565082 0.399898,0.462285 1.339549,2.02526 2.088116,3.473277 0.74856,1.448018 1.65485,3.622191 2.01398,4.831497 0.35912,1.209306 0.65295,3.1617 0.65295,4.338653 0,1.176953 -0.29918,2.767309 -0.66485,3.534123 -0.36567,0.766815 -0.5425,1.713038 -0.39297,2.102717 0.24362,0.634871 0.38868,0.596611 1.39565,-0.36813 0.61807,-0.592151 1.31862,-1.076638 1.55678,-1.076638 0.23815,0 1.29056,0.479294 2.33867,1.065098 1.09568,0.612385 2.59736,1.083235 3.53302,1.107769 1.30859,0.03431 1.81779,-0.178735 2.59963,-1.087679 0.53476,-0.621692 0.97229,-1.493331 0.97229,-1.936976 0,-0.443645 -0.43588,-1.207924 -0.96862,-1.698399 -0.53273,-0.490474 -1.88015,-1.211317 -2.99426,-1.601874 -1.1141,-0.390557 -2.15073,-1.028331 -2.3036,-1.417277 -0.15288,-0.388945 -0.70949,-2.397431 -1.23691,-4.463301 -0.52741,-2.065869 -1.53352,-4.8903 -2.23579,-6.276511 -0.70228,-1.386211 -2.09626,-3.671618 -3.09774,-5.078681 -1.00148,-1.407063 -1.72735,-2.651821 -1.61304,-2.766128 0.1143,-0.114307 0.55856,-0.02013 0.98723,0.209291 0.42867,0.229418 1.52392,1.383064 2.4339,2.56366 0.90998,1.180595 2.21485,3.212814 2.89971,4.51604 0.68486,1.303227 1.2452,2.635085 1.2452,2.959686 0,0.324601 0.18222,0.477564 0.40494,0.339919 0.24739,-0.152897 0.40363,-3.273696 0.40157,-8.021389 -0.002,-4.364392 -0.25453,-9.673238 -0.57631,-12.11005 -0.52478,-3.974111 -0.51253,-4.586953 0.14567,-7.288852 0.61673,-2.531677 0.69053,-4.257578 0.52049,-12.172829 -0.10897,-5.072596 -0.33992,-9.310528 -0.5132,-9.417626 -0.17329,-0.107099 -1.6515,0.689835 -3.2849,1.770963 -1.63341,1.081128 -3.60761,2.29319 -4.38711,2.693471 -0.779502,0.400281 -2.419494,1.399131 -3.644426,2.219666 -1.224933,0.820535 -3.537221,2.193245 -5.13842,3.050466 -2.599123,1.391471 -2.894242,1.670264 -2.752449,2.600187 0.08735,0.572883 0.261862,1.823354 0.387801,2.778826 0.125939,0.955472 0.01586,3.399037 -0.244618,5.430145 -0.404539,3.154424 -0.365556,4.512848 0.267337,9.315814 0.662984,5.031328 0.683605,6.057609 0.196009,9.754963 -0.299709,2.272641 -0.651109,8.915639 -0.780889,14.762219 -0.129781,5.84658 -0.18136,10.629889 -0.114621,10.629576 0.06674,-3.13e-4 0.613402,-0.256588 1.214808,-0.569499 z M 32.43145,76.165998 c 1.244602,-0.43387 1.244602,-0.43387 1.174001,-3.372164 -0.0706,-2.938295 -0.0706,-2.938295 -1.28541,-2.199729 -0.668144,0.406211 -1.948704,0.739247 -2.845687,0.740079 -0.896983,8.33e-4 -2.036907,-0.28288 -2.533164,-0.630472 -0.496257,-0.347592 -1.171526,-1.152638 -1.500596,-1.78899 -0.530859,-1.026567 -0.527108,-1.327417 0.03327,-2.668581 0.61572,-1.473624 0.605448,-1.537706 -0.409088,-2.552242 -0.969817,-0.969817 -1.086449,-0.99488 -1.713184,-0.368146 -0.607528,0.607528 -0.612887,0.763529 -0.05545,1.614281 0.584843,0.892584 0.535299,1.036585 -0.948761,2.757607 -0.861204,0.998714 -1.566205,1.998065 -1.566667,2.22078 -4.62e-4,0.222715 0.817782,1.44771 1.81832,2.72221 1.000538,1.274501 2.503749,2.678663 3.340469,3.12036 0.852683,0.450123 2.340121,0.81095 3.384331,0.820981 1.024661,0.0098 2.423092,-0.177345 3.107622,-0.415974 z M 17.539868,68.96069 c 0,-0.19268 -0.395038,-0.852536 -0.877861,-1.466347 -0.482824,-0.613811 -1.479189,-1.36727 -2.214144,-1.674354 -0.734955,-0.307084 -1.433245,-0.558335 -1.551756,-0.558335 -0.118511,0 -0.215474,0.719831 -0.215474,1.599624 0,1.096258 0.222993,1.729505 0.708639,2.012368 0.389751,0.227009 1.483079,0.418285 2.429617,0.425057 0.946539,0.0068 1.720979,-0.145333 1.720979,-0.338013 z m 5.439729,-9.773079 c 6.035646,-6.074043 6.035646,-6.074043 4.177972,-6.074043 -1.021721,0 -2.105238,-0.095 -2.407816,-0.211109 -0.327414,-0.125641 -2.840524,1.980832 -6.207451,5.203046 -5.65731,5.414154 -5.65731,5.414154 -4.038511,6.267255 0.89034,0.469206 1.803606,0.861155 2.02948,0.870998 0.225874,0.0098 3.126721,-2.715423 6.446326,-6.056147 z m -8.240231,4.459461 c 0.352801,-0.206331 1.154311,-1.115197 1.781134,-2.019702 0.626822,-0.904506 1.228402,-1.555831 1.336843,-1.44739 0.108441,0.108441 -0.113034,0.670589 -0.492167,1.249219 -0.379132,0.578629 -1.04159,1.404312 -1.472128,1.83485 -0.430539,0.430538 -1.010574,0.777256 -1.288968,0.770483 -0.313745,-0.0076 -0.262315,-0.154929 0.135286,-0.38746 z m 3.205438,-1.835412 c 0,-0.185634 0.835267,-1.571233 1.856149,-3.07911 1.020882,-1.507876 2.11421,-2.955764 2.429618,-3.217529 0.376706,-0.312639 0.573468,-0.328187 0.573468,-0.04532 0,0.236841 -0.187179,0.546303 -0.415955,0.687694 -0.228775,0.141391 -1.322103,1.547383 -2.429617,3.124426 -1.107515,1.577043 -2.013663,2.715469 -2.013663,2.529835 z m 3.644427,-3.544304 c 0,-0.155324 0.907544,-1.241802 2.016764,-2.414396 1.109221,-1.172593 2.020328,-1.942917 2.024682,-1.71183 0.0044,0.231088 -0.90319,1.317565 -2.016765,2.414396 -1.113575,1.09683 -2.024681,1.867153 -2.024681,1.71183 z M 89.433752,36.896561 c 0.412844,-0.456187 1.853301,-1.488829 3.201017,-2.294761 1.347715,-0.805932 5.040226,-3.194443 8.205581,-5.307801 3.16535,-2.113359 5.67501,-3.972193 5.57702,-4.130742 -0.098,-0.15855 -2.22771,-0.514602 -4.73273,-0.791227 -2.50501,-0.276625 -6.19911,-0.935048 -8.209108,-1.463162 -2.622918,-0.689155 -4.79762,-0.966339 -7.703905,-0.981926 -2.22715,-0.01195 -5.507133,-0.292636 -7.288853,-0.623756 -1.781719,-0.33112 -5.592615,-0.958529 -8.468657,-1.394242 -2.876041,-0.435712 -5.700472,-0.685343 -6.276512,-0.554734 -0.576039,0.130609 -2.303778,0.874045 -3.839418,1.65208 -1.535641,0.778035 -3.904518,1.777644 -5.264172,2.221354 -1.359653,0.443709 -3.474315,1.410215 -4.699247,2.147791 -1.224932,0.737577 -3.796349,2.063653 -5.714261,2.946836 -1.917911,0.883183 -3.614213,1.811441 -3.769558,2.062796 -0.199306,0.322484 0.538213,0.457008 2.505518,0.457008 1.533381,0 4.703452,0.268887 7.044603,0.597526 2.341151,0.328639 6.427294,1.158485 9.080318,1.844103 4.506361,1.164573 5.223254,1.238893 10.897725,1.129765 5.682691,-0.109287 6.26972,-0.04815 9.111066,0.948832 1.670362,0.586104 4.265098,1.189782 5.766081,1.341505 1.500982,0.151723 2.832841,0.443784 2.959685,0.649023 0.126845,0.205239 0.373852,0.373162 0.548905,0.373162 0.175053,0 0.656059,-0.373244 1.068902,-0.82943 z"
       id="path22" /></g></svg>
