<?xml version="1.0" encoding="UTF-8" standalone="no"?>
<!-- Created with Inkscape (http://www.inkscape.org/) -->

<svg
   width="454.20935"
   height="400.526"
   viewBox="0 0 120.17622 105.97251"
   version="1.1"
   id="svg1"
   xml:space="preserve"
   xmlns:inkscape="http://www.inkscape.org/namespaces/inkscape"
   xmlns:sodipodi="http://sodipodi.sourceforge.net/DTD/sodipodi-0.dtd"
   xmlns="http://www.w3.org/2000/svg"
   xmlns:svg="http://www.w3.org/2000/svg"><sodipodi:namedview
     id="namedview1"
     pagecolor="#ffffff"
     bordercolor="#000000"
     borderopacity="0.25"
     inkscape:showpageshadow="2"
     inkscape:pageopacity="0.0"
     inkscape:pagecheckerboard="0"
     inkscape:deskcolor="#d1d1d1"
     inkscape:document-units="mm"><inkscape:page
       x="0"
       y="0"
       width="120.17622"
       height="105.97251"
       id="page2"
       margin="0"
       bleed="0" /></sodipodi:namedview><defs
     id="defs1" /><g
     inkscape:label="Capa 1"
     inkscape:groupmode="layer"
     id="layer1"
     transform="translate(-6.8852693,-14.544705)"><path
       style="fill:#ffffff;stroke-width:1.74041"
       d="m 216.24605,447.05315 c -3.3977,-3.44241 -2.61106,-7.19163 3.15354,-15.03027 4.93437,-6.70972 5.44647,-8.79325 6.91443,-28.13233 1.69244,-22.29656 3.54456,-28.54761 12.17489,-41.09138 3.00715,-4.37075 5.07842,-8.96087 4.60281,-10.20029 -0.57185,-1.49021 -6.36738,-2.66888 -17.11064,-3.47988 -8.93525,-0.67453 -23.68968,-2.71666 -32.78764,-4.53807 -51.4553,-10.30139 -66.78648,-13.86768 -67.99043,-15.81572 -2.00699,-3.24736 -3.76237,-34.07919 -3.97693,-69.85135 -0.26177,-43.64307 2.92159,-139.17594 4.73237,-142.0191 2.86092,-4.492 47.3351,0.15947 81.97698,8.57381 17.94342,4.35837 24.23602,5.06224 45.25622,5.06224 18.51015,0 27.14961,0.7781 35.72209,3.21726 6.21892,1.76949 16.60334,4.20956 23.0765,5.42237 6.47316,1.21282 12.25566,2.99196 12.85003,3.95366 2.59135,4.19288 3.3154,102.21281 1.24401,168.40944 l -1.49766,47.8613 -22.27371,-0.61395 c -21.87453,-0.60296 -22.39633,-0.52898 -29.11556,4.12744 -8.15864,5.65395 -17.19109,16.3494 -22.32829,26.43926 -3.0125,5.91677 -3.73566,10.44003 -3.75638,23.49554 -0.0149,9.38945 -0.93355,17.96226 -2.19112,20.44738 -4.73949,9.36585 -23.92623,18.57441 -28.67551,13.76264 z m 24.63083,-202.96053 c -1.41088,-14.57534 -3.0711,-16.67674 -8.14821,-10.31344 -3.14123,3.937 -6.75463,5.48739 -19.30362,8.28257 -16.11929,3.59043 -21.97986,5.86106 -21.97986,8.51593 0,3.39207 3.72945,3.32683 21.42321,-0.37473 l 18.36414,-3.84181 3.72819,4.73963 c 5.86584,7.4572 7.16716,5.91568 5.91615,-7.00815 z M 270.5352,232.8278 c 4.1566,-5.93438 3.40058,-12.73963 -1.87643,-16.89054 -5.94135,-4.67346 -8.55568,-4.54723 -13.76769,0.66478 -5.27812,5.27812 -5.4454,10.78853 -0.48772,16.06574 4.90321,5.21922 12.53521,5.29493 16.13184,0.16002 z m -93.13961,-9.41972 c 6.92086,-8.79845 2.70639,-19.78001 -7.59112,-19.78001 -6.61876,0 -9.21582,2.43188 -10.74102,10.05787 -0.86042,4.30211 -0.18343,6.26668 3.39138,9.84149 5.7017,5.7017 10.39139,5.66424 14.94076,-0.11935 z m 85.243,-18.53857 c 12.08184,-6.06027 16.15584,-10.31097 12.95251,-13.51429 -1.40798,-1.40798 -5.44147,-0.46277 -14.9925,3.51333 -13.4178,5.58584 -19.89425,10.61045 -17.87907,13.87108 1.96187,3.17438 8.34911,1.93338 19.91906,-3.87012 z m -71.56501,-3.17629 c 0.67363,-3.53756 -21.43152,-18.9598 -27.16747,-18.9541 -6.83575,0.007 -3.77111,5.40366 8.20412,14.44757 11.22298,8.47578 17.90512,10.06376 18.96335,4.50653 z"
       id="path18"
       transform="scale(0.26458333)"
       inkscape:export-filename="tofucho_fuerte.png"
       inkscape:export-xdpi="96"
       inkscape:export-ydpi="96" /><path
       style="fill:#ffffff;stroke-width:1.74041"
       d="m 297.61025,127.91778 c -22.10433,-5.60018 -24.68065,-5.89207 -43.51027,-4.92961 -18.54979,0.94815 -21.63265,0.6192 -42.11972,-4.49431 -23.37272,-5.83375 -53.32533,-10.43717 -69.26657,-10.64558 l -9.57226,-0.12515 24.02234,-12.149821 C 192.76666,77.566372 228.4494,62.65479 235.93628,62.65479 c 3.51856,0 18.63882,1.885285 33.60057,4.189522 14.96176,2.304237 35.81823,4.688574 46.34772,5.298526 10.52948,0.609952 27.36796,2.96578 37.41883,5.235173 10.05087,2.269392 25.31139,5.02944 33.91227,6.133438 8.60089,1.103999 15.84153,2.210839 16.09034,2.459646 0.2488,0.248808 -15.40331,10.927513 -34.78247,23.730455 -25.89103,17.10503 -36.85023,23.3962 -41.3263,23.72348 -3.35029,0.24497 -16.66444,-2.2333 -29.58699,-5.50725 z"
       id="path19"
       transform="scale(0.26458333)" /><path
       style="fill:#ffffff;stroke-width:1.74041"
       d="m 333.29507,310.5853 c 1.4578,-51.00879 1.58418,-70.90871 0.82299,-129.59364 -0.2546,-19.62921 0.0398,-37.25087 0.65425,-39.15924 1.08202,-3.36064 71.75554,-47.850234 76.01202,-47.850234 1.42827,0 1.80623,17.014604 1.39179,62.653924 -0.5333,58.72708 -0.76335,62.65398 -3.67057,62.65479 -9.33928,0.003 -29.09599,14.42428 -29.09599,21.23901 0,5.26519 5.83736,3.55554 13.03802,-3.81861 3.9807,-4.0766 9.08598,-7.37829 12.3579,-7.99211 8.15101,-1.52914 19.774,4.26482 27.78793,13.85205 3.69998,4.42635 7.44769,8.04792 8.32825,8.04792 0.91222,0 1.08279,-3.18225 0.39646,-7.39674 -0.6625,-4.06821 -1.00606,-10.52949 -0.76347,-14.35839 0.24259,-3.82891 0.48572,-11.21546 0.54028,-16.41457 l 0.0992,-9.45293 -7.18218,-0.37837 c -7.61654,-0.40125 -14.57296,-3.25099 -14.57296,-5.96989 0,-1.00528 1.72129,-0.98167 4.46433,0.0612 9.02601,3.43168 18.03277,2.09334 23.63866,-3.51255 3.30365,-3.30365 5.00585,-6.59696 4.65225,-9.00084 -0.85673,-5.82429 -4.40213,-5.74046 -7.46188,0.17644 -2.35017,4.54472 -3.74429,5.33223 -9.43964,5.33223 -14.24615,0 -21.1525,-13.55982 -11.51686,-22.61203 5.33682,-5.01368 12.15264,-5.20513 21.10404,-0.59277 8.88228,4.57673 13.05042,12.40053 20.7566,38.96116 5.72462,19.73085 6.2313,23.22563 5.68231,39.19277 -0.70801,20.59173 -3.08528,25.81965 -12.43044,27.33617 -3.325,0.53957 -11.79917,3.52434 -18.83149,6.6328 -11.91929,5.26864 -14.08379,5.64956 -31.93055,5.61926 -10.52948,-0.0179 -22.56948,-0.8717 -26.75555,-1.89739 -4.18607,-1.0257 -8.68939,-1.45109 -10.00736,-0.94534 -7.53891,2.89294 3.50887,8.37144 22.23825,11.02774 6.91648,0.98093 12.95182,2.15992 13.41187,2.61997 0.46005,0.46004 -1.05934,2.89289 -3.37641,5.40632 -3.9846,4.32229 -46.91677,39.79119 -63.87606,52.77192 l -7.85649,6.01342 z"
       id="path20"
       transform="scale(0.26458333)" /><path
       style="fill:#ffffff;stroke-width:1.74041"
       d="m 86.150337,280.18323 c -3.828904,-0.83074 -15.96827,-4.65486 -26.976368,-8.49804 -18.621651,-6.50125 -20.159309,-7.3867 -22.092006,-12.72151 -1.142504,-3.15365 -2.112602,-12.39097 -2.155772,-20.52739 -0.06467,-12.18863 1.146899,-19.08387 6.880698,-39.15925 8.41643,-29.4679 9.080815,-30.83619 17.107287,-35.23218 13.250581,-7.25718 21.436464,-6.31485 27.002965,3.10848 2.656037,4.49631 2.69646,5.6118 0.402329,11.10242 -4.331648,10.36709 -19.214085,11.2784 -23.543664,1.44166 -3.363029,-7.64075 -7.082659,-7.3707 -7.082659,0.51421 0,4.31589 1.352586,7.52314 4.500121,10.67067 4.122859,4.12286 5.382222,4.42014 15.02213,3.54602 9.163926,-0.83096 10.198143,-0.63023 8.012789,1.55512 -1.380073,1.38007 -6.654778,3.0002 -11.72157,3.60029 l -9.212346,1.09106 1.485568,7.13298 c 0.817062,3.92313 1.400959,13.98584 1.297548,22.36156 -0.103412,8.37573 0.320912,15.2286 0.94294,15.2286 0.622028,0 4.622563,-3.61378 8.890075,-8.03062 13.217271,-13.67976 25.386908,-16.03979 32.973858,-6.39454 3.0782,3.9133 3.50203,7.0442 3.50203,25.86983 0,11.77974 -0.58738,21.77926 -1.3053,22.22116 -2.99682,1.84462 -17.468254,2.52159 -23.930653,1.11947 z"
       id="path21"
       transform="scale(0.26458333)" /><path
       style="fill:#ffffff;stroke-width:1.74041"
       d="m 130.53081,400.73626 c -9.08181,-5.96228 -19.10963,-14.64893 -22.64955,-19.62028 l -3.67569,-5.16204 4.31521,-1.96614 c 3.38722,-1.54333 6.09737,-1.3589 12.60245,0.85761 10.82101,3.68708 10.5906,3.73381 13.96738,-2.83259 1.59983,-3.11099 6.43456,-10.25027 10.74384,-15.86508 7.73598,-10.07963 7.92537,-10.19567 14.97513,-9.1751 3.92704,0.56851 10.097,1.87624 13.71102,2.90607 l 6.57096,1.87242 -13.5326,12.79966 c -7.44293,7.03981 -17.44852,18.72198 -22.23465,25.96038 -4.78613,7.23841 -9.09365,13.14292 -9.57226,13.12115 -0.47862,-0.0218 -2.82817,-1.325 -5.22124,-2.89606 z"
       id="path22"
       transform="scale(0.26458333)" /><path
       style="fill:#000000"
       d="m 56.353587,120.18811 c -0.476557,-0.28188 -1.0097,-0.72413 -1.18476,-0.98278 -0.175061,-0.25864 -0.321277,-1.21416 -0.324926,-2.12337 -0.0036,-0.90921 0.212142,-2.07894 0.479536,-2.5994 0.267393,-0.52047 0.973145,-1.46879 1.568336,-2.10738 1.014161,-1.08812 1.085705,-1.47105 1.13846,-6.09338 0.05434,-4.76115 0.111661,-5.04382 1.651971,-8.146304 0.877624,-1.767704 1.551209,-3.258477 1.496856,-3.312831 -0.05435,-0.05435 -1.972201,-0.430761 -4.261884,-0.836463 -4.16306,-0.737639 -4.16306,-0.737639 -6.527534,0.419191 -1.300461,0.636256 -3.649612,2.334425 -5.220336,3.773708 -1.709546,1.566487 -3.842914,4.173889 -5.314942,6.495919 -1.981093,3.12505 -2.661462,3.87905 -3.500265,3.87905 -0.572651,0 -2.01648,-0.49422 -3.208508,-1.09827 -1.192029,-0.60405 -2.971381,-1.82252 -3.954117,-2.70772 -0.982736,-0.88519 -2.16536,-2.46235 -2.628053,-3.50479 -0.830847,-1.871873 -0.830926,-1.909179 -0.0064,-3.013512 0.459161,-0.614996 1.460536,-1.28031 2.225277,-1.478474 0.822226,-0.21306 2.048264,-0.177602 3.000164,0.08677 0.885349,0.245887 1.750936,0.448155 1.923526,0.449483 0.17259,0.0013 0.597359,-0.545926 0.943932,-1.216123 0.346572,-0.670196 1.518053,-2.206122 2.603291,-3.413168 1.973161,-2.19463 1.973161,-2.19463 0.626544,-2.463953 -0.74064,-0.148128 -2.001517,-0.269324 -2.801949,-0.269324 -0.995031,0 -1.902826,-0.399325 -2.870178,-1.262548 -1.414869,-1.26255 -1.414869,-1.26255 -1.631487,-6.823443 C 30.359524,76.278105 30.359524,76.278105 25.160712,76.029731 20.4619,75.805246 19.607732,75.631478 16.279407,74.222961 14.254036,73.365843 11.968579,72.53724 11.200614,72.381621 10.42945,72.225354 9.3141629,71.516166 8.7095163,70.797585 8.074521,70.042936 7.614719,68.954188 7.614719,68.205257 c 0,-0.71018 -0.2130699,-2.137413 -0.4734887,-3.17163 -0.3440887,-1.3665 -0.3415367,-2.730844 0.00934,-4.992286 0.2655547,-1.711542 0.9861221,-4.509632 1.6012608,-6.217979 0.6151388,-1.708346 1.3953939,-4.36097 1.7338999,-5.894719 0.338506,-1.533749 1.109513,-3.436364 1.713349,-4.228034 0.603836,-0.79167 1.817673,-1.801153 2.697415,-2.243295 0.879742,-0.442142 2.342756,-0.938843 3.251142,-1.10378 0.933975,-0.169583 2.292579,-0.08835 3.126772,0.186962 0.811338,0.267765 1.979995,1.086809 2.597017,1.820098 1.074811,1.27734 1.114663,1.515278 0.95032,5.673871 -0.161437,4.085053 -0.240832,4.400224 -1.348455,5.352962 -0.784276,0.674606 -1.722911,1.012342 -2.813491,1.012342 -0.900116,0 -1.737759,0.101186 -1.86143,0.224857 -0.123672,0.123671 -0.02979,1.244665 0.208628,2.491098 0.238417,1.246432 0.493741,2.339148 0.567387,2.428257 0.07365,0.08911 0.873309,-0.286043 1.777029,-0.833671 1.170718,-0.70942 2.345948,-1.005116 4.087668,-1.028484 1.754588,-0.02354 2.681293,0.181186 3.283371,0.725361 0.461357,0.416988 0.938063,0.75816 1.059348,0.75816 0.121284,0 0.474724,-2.280742 0.785421,-5.068315 0.392902,-3.525106 0.473104,-7.476173 0.263405,-12.976367 -0.165824,-4.349429 -0.171024,-8.603545 -0.01155,-9.453592 0.176135,-0.938878 1.039281,-2.378983 2.198964,-3.668828 1.450207,-1.61298 2.609617,-2.391448 4.824066,-3.239047 1.603277,-0.613667 4.182259,-1.896389 5.731072,-2.850492 1.548813,-0.954104 4.083234,-2.155792 5.632047,-2.670419 1.548813,-0.514627 4.556473,-1.781774 6.683689,-2.815882 3.268996,-1.589165 4.27489,-1.879809 6.498516,-1.877688 1.446967,0.0014 3.703105,0.188556 5.013639,0.415946 1.310534,0.22739 4.624777,0.809835 7.364985,1.294321 2.776881,0.490971 6.894556,0.882156 9.302557,0.883757 3.3079,0.0022 5.541494,0.302028 9.531157,1.279421 2.865937,0.702102 7.233131,1.470527 9.704881,1.707611 3.74122,0.35885 4.67323,0.598601 5.56352,1.431166 0.58819,0.550058 1.28246,1.390015 1.54282,1.866573 0.29145,0.533471 0.4936,4.150267 0.526,9.410986 0.0289,4.699484 0.14911,8.641 0.26703,8.758924 0.11792,0.117924 0.93252,-0.006 1.81022,-0.275363 1.21704,-0.373518 2.02418,-0.361429 3.40053,0.05094 0.99259,0.297387 2.55547,1.037536 3.47307,1.644774 0.9176,0.607239 2.0412,1.711644 2.49688,2.454235 0.45568,0.742591 1.02759,2.42242 1.27091,3.732954 0.24332,1.310534 0.91948,3.65 1.50257,5.198812 0.5831,1.548813 1.29867,4.24632 1.59016,5.994459 0.41414,2.483664 0.41679,3.95152 0.0121,6.715133 -0.28482,1.945183 -0.66475,3.82913 -0.84428,4.186549 -0.17952,0.357418 -0.97055,1.088501 -1.75784,1.624628 -0.78729,0.536128 -1.86252,0.974778 -2.3894,0.974778 -0.52688,0 -2.08711,0.569555 -3.46718,1.265677 -1.38008,0.696123 -3.73221,1.508767 -5.22696,1.805877 -2.5557,0.507993 -2.76347,0.641622 -3.48481,2.241266 -0.48615,1.078072 -1.88653,2.606965 -3.82371,4.174593 -1.68115,1.36044 -3.73389,2.945961 -4.56165,3.52338 -0.82776,0.577419 -3.64432,2.883583 -6.259022,5.124807 -2.614702,2.241225 -5.419533,4.35303 -6.232958,4.692901 -1.173936,0.490502 -2.831625,0.558534 -8.037715,0.329872 -6.558762,-0.288075 -6.558762,-0.288075 -8.843657,1.972593 -1.256693,1.243373 -2.815721,3.164693 -3.464508,4.269593 -1.063773,1.81166 -1.194589,2.49819 -1.332118,6.99112 -0.134019,4.37823 -0.272295,5.1411 -1.140666,6.29301 -0.543488,0.72094 -1.94873,1.8336 -3.12276,2.4726 -1.17403,0.63899 -2.903333,1.2712 -3.842897,1.40491 -0.985784,0.14029 -2.074764,0.0264 -2.574766,-0.2694 z m 4.700104,-1.89827 c 0.750848,-0.36401 2.047522,-1.22737 2.881498,-1.91857 1.51632,-1.25672 1.51632,-1.25672 1.531205,-6.18286 0.01347,-4.45965 0.125986,-5.15323 1.188124,-7.32416 0.699714,-1.43016 2.29599,-3.476135 3.955036,-5.069233 2.781795,-2.671217 2.781795,-2.671217 6.393477,-2.645392 1.986425,0.0142 4.586459,0.187548 5.777854,0.385207 1.247608,0.206987 2.483545,0.191779 2.914606,-0.03586 0.681294,-0.359788 0.7444,-1.395116 0.70346,-11.540992 -0.02922,-7.241813 0.134909,-11.903737 0.468595,-13.30981 0.282463,-1.190235 0.517193,-4.309522 0.521621,-6.93175 0.0044,-2.622228 -0.22299,-5.742464 -0.505374,-6.933859 -0.282384,-1.191394 -0.461813,-4.115726 -0.398732,-6.498515 0.06308,-2.382789 0.113807,-6.144875 0.112723,-8.360191 -0.0011,-2.215316 -0.19843,-4.224306 -0.438546,-4.464422 -0.240116,-0.240116 -1.765579,-0.624784 -3.389918,-0.854819 -1.624338,-0.230035 -4.593266,-0.918452 -6.597616,-1.529817 -3.392509,-1.034778 -4.023379,-1.091741 -9.131789,-0.824529 -4.158431,0.217521 -6.16956,0.130878 -8.303538,-0.35773 -1.548813,-0.354625 -4.765579,-1.155396 -7.148368,-1.779491 -3.083028,-0.8075 -6.320939,-1.259851 -11.22834,-1.56865 -4.93411,-0.310481 -7.029422,-0.299546 -7.364985,0.03843 -0.311583,0.313828 -0.468988,4.135439 -0.468988,11.386494 0,6.310655 -0.250143,13.198302 -0.593051,16.329557 -0.38003,3.47024 -0.495074,7.282811 -0.320283,10.614242 0.150022,2.859346 0.391493,8.025666 0.536603,11.48071 0.194572,4.632764 0.432344,6.474188 0.905723,7.014369 0.388076,0.44284 1.609552,0.838319 3.089089,1.000159 1.34596,0.147228 5.274055,0.93242 8.729099,1.744872 3.455044,0.812452 7.93902,1.700318 9.964391,1.973037 2.025371,0.272718 5.047181,0.5662 6.715133,0.652182 1.967148,0.101406 2.989503,0.327811 2.909862,0.6444 -0.06753,0.268437 -0.692244,1.199615 -1.388257,2.069286 -0.696014,0.86967 -1.702406,2.555996 -2.236429,3.74739 -0.778148,1.736035 -1.018646,3.258525 -1.211149,7.667255 -0.237352,5.43589 -0.256319,5.51804 -1.600419,6.93175 -0.748121,0.78687 -1.490004,1.86195 -1.64863,2.38908 -0.158625,0.52713 -0.07579,1.35569 0.184069,1.84125 0.317561,0.59337 0.907673,0.88283 1.799772,0.88283 0.730012,0 1.941625,-0.29783 2.692472,-0.66185 z m 1.289671,-52.084434 c -0.409934,-0.655267 -0.771408,-1.239695 -0.803275,-1.298728 -0.03187,-0.05903 -1.894212,0.290935 -4.138541,0.777707 -2.24433,0.486773 -4.616727,0.998092 -5.271994,1.136265 -0.894662,0.188654 -1.191394,0.08425 -1.191394,-0.419183 0,-0.37232 0.626054,-0.876796 1.408011,-1.13458 0.774407,-0.255295 3.154665,-0.806542 5.289463,-1.224993 3.501329,-0.686311 3.906254,-0.866667 4.134722,-1.841631 0.139299,-0.594446 0.538979,-1.135833 0.888179,-1.203083 0.501415,-0.09656 0.601445,0.298467 0.475754,1.878824 -0.088,1.106431 0.05546,2.215711 0.320874,2.481125 0.264016,0.264015 0.480028,0.830947 0.480028,1.259849 0,0.428902 -0.190461,0.779822 -0.423247,0.779822 -0.232786,0 -0.758647,-0.536127 -1.16858,-1.191394 z m 5.206216,-4.685988 c -0.899207,-0.899207 -1.06001,-1.375549 -0.84094,-2.491097 0.148975,-0.758612 0.597933,-1.622988 0.997684,-1.920837 0.39975,-0.297848 1.176946,-0.541543 1.727101,-0.541543 0.550155,0 1.390193,0.389911 1.866751,0.866469 0.476558,0.476558 0.866468,1.327566 0.866468,1.891129 0,0.563563 -0.40406,1.538341 -0.897913,2.166172 -0.493852,0.627831 -1.282535,1.141511 -1.75263,1.141511 -0.470094,0 -1.355028,-0.500312 -1.966521,-1.111804 z M 43.139939,59.165347 C 42.663381,58.68879 42.27347,57.757391 42.27347,57.095573 c 0,-0.661818 0.303488,-1.636596 0.674418,-2.166172 0.422732,-0.603534 1.125227,-0.962866 1.882408,-0.962866 0.664395,0 1.563133,0.392427 1.997195,0.87206 0.434061,0.479633 0.789203,1.451894 0.789203,2.160581 0,0.708686 -0.355142,1.680948 -0.789203,2.16058 -0.434062,0.479633 -1.246377,0.87206 -1.805144,0.87206 -0.558767,0 -1.405851,-0.389911 -1.882408,-0.866469 z m 21.228485,-4.360334 c 0,-0.70035 0.800858,-1.264458 3.690349,-2.599407 2.029692,-0.93772 3.979247,-1.704946 4.332344,-1.704946 0.356952,0 0.641994,0.391627 0.641994,0.882054 0,0.67584 -0.830244,1.28355 -3.551267,2.599406 -1.953196,0.944544 -3.902751,1.717352 -4.332343,1.717352 -0.500402,0 -0.781077,-0.321418 -0.781077,-0.894459 z M 45.856042,52.120224 c -1.807844,-1.309711 -3.136108,-2.590031 -3.140949,-3.027576 -0.0046,-0.416988 0.292849,-0.75816 0.661028,-0.75816 0.368179,0 2.134417,0.988572 3.924972,2.196827 2.205498,1.488254 3.210675,2.429873 3.11641,2.919356 -0.07653,0.397392 -0.429342,0.77123 -0.784024,0.83075 -0.354682,0.05952 -2.054528,-0.913018 -3.777437,-2.161197 z m -7.268761,51.400526 c 1.338529,-2.05348 3.443651,-4.717338 4.678048,-5.919678 1.234397,-1.20234 2.996291,-2.730771 3.915321,-3.396512 1.670962,-1.210439 1.670962,-1.210439 0.439754,-1.457072 -0.677164,-0.135648 -2.455652,-0.61553 -3.952196,-1.066404 -2.720988,-0.819772 -2.720988,-0.819772 -4.91367,1.815003 -1.205975,1.449126 -2.605975,3.485456 -3.111111,4.525178 -0.670081,1.379228 -1.098632,1.812441 -1.584846,1.602085 -0.366529,-0.158575 -1.446238,-0.575246 -2.399354,-0.925934 -1.328629,-0.488855 -2.010899,-0.527767 -2.924332,-0.166784 -0.655267,0.258957 -1.191394,0.767528 -1.191394,1.130158 0,0.36263 0.731083,1.47277 1.624629,2.46698 0.893546,0.99421 2.775848,2.55442 4.182893,3.46713 1.407046,0.9127 2.613234,1.65946 2.680417,1.65946 0.06718,0 1.217312,-1.68012 2.555841,-3.73361 z m 51.173206,-9.532415 c 0.926797,-0.624506 2.562385,-1.946656 3.63464,-2.938112 1.072255,-0.991456 4.51701,-3.791328 7.655013,-6.221938 3.138,-2.430609 6.10531,-4.980835 6.59402,-5.667169 0.48872,-0.686334 0.76436,-1.37209 0.61255,-1.523902 -0.15181,-0.151813 -1.17735,-0.276023 -2.27897,-0.276023 -1.10162,0 -3.14026,-0.296233 -4.53031,-0.658296 -1.39005,-0.362062 -2.786858,-0.803513 -3.104013,-0.981003 -0.334567,-0.187233 -0.43452,-0.552673 -0.238092,-0.870499 0.27059,-0.437825 0.897179,-0.416118 3.121295,0.10813 1.53051,0.360758 4.43987,0.654039 6.46524,0.651736 2.02537,-0.0023 4.55866,-0.206055 5.62952,-0.452781 1.07087,-0.246727 3.07499,-1.021783 4.45361,-1.722347 1.37862,-0.700564 3.15288,-1.273753 3.9428,-1.273753 0.82797,0 1.71529,-0.321086 2.09518,-0.75816 0.36243,-0.416988 0.82187,-1.830415 1.02097,-3.140949 0.1991,-1.310534 0.35688,-3.649999 0.35063,-5.198812 -0.006,-1.548813 -0.337,-3.985756 -0.735,-5.41543 -0.398,-1.429673 -1.2968,-4.522884 -1.99733,-6.873801 -0.72865,-2.445267 -1.7029,-4.740782 -2.27668,-5.364273 -0.55164,-0.599432 -1.78281,-1.449789 -2.73592,-1.88968 -0.95312,-0.439891 -2.26599,-0.804084 -2.9175,-0.809317 -0.70259,-0.0056 -1.75142,0.496972 -2.57775,1.235296 -1.10056,0.983356 -1.39318,1.586614 -1.39318,2.872167 0,1.238865 0.28501,1.872514 1.19389,2.654299 0.9115,0.784041 1.70577,1.026942 3.35801,1.026942 2.06847,0 2.19245,-0.06779 2.80498,-1.533785 0.35247,-0.843582 0.82991,-1.416943 1.06098,-1.274135 0.23107,0.142808 0.42012,0.744395 0.42012,1.33686 0,0.592466 -0.47853,1.555738 -1.06339,2.140604 -0.86267,0.862668 -1.49869,1.063394 -3.36948,1.063394 -1.41393,0 -2.68943,-0.268503 -3.29697,-0.694041 -0.54498,-0.381723 -1.08034,-0.604582 -1.18968,-0.495243 -0.10934,0.109339 -0.0731,0.526346 0.0805,0.926682 0.15362,0.400335 0.85967,1.027999 1.569,1.394807 0.74552,0.38552 2.04867,0.60726 3.08845,0.52552 1.75196,-0.137726 1.79724,-0.10759 1.74013,1.158298 -0.0323,0.714837 -0.30253,2.60213 -0.60061,4.193984 -0.46953,2.507437 -0.44869,3.127412 0.15593,4.638509 0.49381,1.234156 0.55775,1.830847 0.21863,2.04043 -0.26359,0.162912 -0.66479,-0.03532 -0.89155,-0.440516 -0.22676,-0.405195 -1.02798,-1.437948 -1.78049,-2.295006 -0.7525,-0.857058 -2.14968,-1.913312 -3.10484,-2.347232 -0.95516,-0.433919 -2.32152,-0.792497 -3.03636,-0.79684 -0.71484,-0.0043 -1.91073,0.364689 -2.65753,0.820069 -0.74681,0.455381 -1.89312,1.529765 -2.54737,2.387522 -0.92859,1.217454 -1.31774,1.45315 -1.77401,1.074479 -0.39199,-0.325322 -0.4564,-0.724402 -0.19558,-1.21175 0.21389,-0.399669 0.93833,-1.276097 1.60985,-1.947616 0.67151,-0.671519 1.94681,-1.591256 2.83399,-2.04386 0.88717,-0.452603 2.22231,-0.822915 2.96697,-0.822915 1.35393,0 1.35393,0 1.02333,-3.357567 -0.18182,-1.846661 -0.30525,-3.649999 -0.27428,-4.007418 0.031,-0.357418 0.14969,-2.112017 0.26382,-3.899109 0.11414,-1.787092 0.17219,-4.613946 0.12902,-6.281898 -0.0432,-1.667952 -0.0173,-5.805807 0.0575,-9.195233 0.0748,-3.389426 -0.0342,-6.466753 -0.24227,-6.838506 -0.32869,-0.587343 -0.59596,-0.528175 -2.03963,0.451525 -0.91376,0.620092 -5.09376,3.186375 -9.288889,5.702852 -4.195131,2.516476 -8.084836,4.902709 -8.643787,5.30274 -0.995839,0.712702 -1.019561,0.896717 -1.17962,9.150491 -0.08984,4.632739 0.03853,9.690372 0.285275,11.239185 0.246742,1.548813 0.4589,4.580088 0.471464,6.736167 0.01256,2.156079 -0.196697,5.665277 -0.465025,7.798219 -0.268327,2.132941 -0.534523,8.410942 -0.591546,13.951113 -0.05702,5.540172 0.01533,10.072886 0.16079,10.072699 0.145459,-1.86e-4 1.022758,-0.511298 1.949555,-1.135804 z M 28.170533,74.408252 c 1.710118,-0.303599 1.710118,-0.303599 1.632155,-6.528398 -0.05112,-4.081704 -0.256135,-6.439483 -0.595478,-6.848367 -0.284634,-0.342963 -1.085523,-0.917296 -1.779753,-1.276297 -0.844961,-0.436946 -1.808173,-0.560492 -2.913663,-0.373721 -0.908285,0.153454 -2.278884,0.74193 -3.045775,1.307724 -0.766892,0.565795 -1.865176,1.721602 -2.44063,2.56846 -0.575455,0.846858 -1.256936,1.539741 -1.514403,1.539741 -0.29507,0 -0.356475,-0.440424 -0.166107,-1.191394 0.166107,-0.655267 0.396332,-1.873739 0.51161,-2.707715 0.115279,-0.833976 -0.07276,-2.686053 -0.417868,-4.115727 -0.345106,-1.429673 -0.69882,-2.891839 -0.786031,-3.249257 -0.123944,-0.507958 0.203296,-0.621219 1.498708,-0.518719 0.911502,0.07212 2.307689,-0.08352 3.10264,-0.345881 0.79495,-0.262357 1.56467,-0.78792 1.710489,-1.167918 0.145819,-0.379997 0.190097,-0.765933 0.0984,-0.857635 -0.0917,-0.0917 -0.693849,0.03368 -1.338104,0.278625 -0.644256,0.244946 -1.927633,0.445356 -2.85195,0.445356 -1.121421,0 -2.060064,-0.326423 -2.821155,-0.981086 -0.780165,-0.67107 -1.164271,-1.458238 -1.215553,-2.491097 -0.05396,-1.086732 0.10719,-1.510012 0.574878,-1.510012 0.367297,0 0.710269,0.470924 0.788807,1.083086 0.07643,0.595697 0.45486,1.32678 0.840965,1.624628 0.386104,0.297849 1.334399,0.541543 2.107321,0.541543 0.772922,0 1.874948,-0.178554 2.448946,-0.396788 0.573998,-0.218234 1.291118,-0.994271 1.5936,-1.724528 0.302482,-0.730257 0.422477,-1.835702 0.266655,-2.456546 -0.155821,-0.620843 -0.753911,-1.599405 -1.329087,-2.174581 -0.731692,-0.731692 -1.531071,-1.045775 -2.661622,-1.045775 -0.888717,0 -2.455861,0.406643 -3.482544,0.903652 -1.026683,0.497009 -2.239968,1.427864 -2.696189,2.068567 -0.456221,0.640702 -1.038361,2.294788 -1.293645,3.675746 -0.255284,1.380958 -1.058189,4.24094 -1.784235,6.355517 -0.8944658,2.605095 -1.3440569,4.795271 -1.3944418,6.793003 -0.040898,1.621576 0.087778,4.020574 0.2859466,5.331108 0.1981685,1.310534 0.6568407,2.723961 1.0192712,3.140949 0.362431,0.416988 1.1322,0.75816 1.710598,0.75816 0.578398,0 2.422372,0.601621 4.09772,1.336936 1.675348,0.735315 4.242446,1.597116 5.704663,1.915113 1.462217,0.317997 3.145965,0.58244 3.741662,0.587651 0.595697,0.0052 1.852639,-0.127144 2.793204,-0.294123 z M 115.34405,55.866471 c -0.0388,-0.02729 -1.05874,-0.175531 -2.26648,-0.329423 -2.1959,-0.279804 -2.1959,-0.279804 -1.94956,1.45236 0.19235,1.352488 0.57871,1.960073 1.76266,2.771931 1.51633,1.039767 1.51633,1.039767 2.02014,-1.402741 0.2771,-1.34338 0.47206,-2.464837 0.43324,-2.492127 z M 90.687412,33.750112 c 1.370104,-0.867123 5.763214,-3.717437 9.762468,-6.334032 3.99925,-2.616594 7.19771,-4.831102 7.10768,-4.921129 -0.09,-0.09003 -2.28989,-0.363095 -4.88858,-0.606818 -2.59869,-0.243723 -6.885551,-1.021483 -9.526356,-1.728355 -3.867008,-1.035094 -5.679796,-1.28528 -9.31454,-1.285517 -3.086696,-2.01e-4 -6.840812,-0.410885 -11.878059,-1.299409 -4.050741,-0.714513 -8.350074,-1.299247 -9.554073,-1.299409 -1.679093,-2.25e-4 -3.041666,0.413412 -5.848664,1.775485 -2.012767,0.976679 -4.993002,2.259266 -6.622744,2.850195 -1.629743,0.590928 -3.799567,1.604843 -4.821831,2.253143 -1.022263,0.648301 -3.734164,2.02609 -6.026444,3.061754 -2.292281,1.035664 -4.167784,2.049503 -4.167784,2.252976 0,0.203472 1.536413,0.36995 3.41425,0.36995 1.877838,0 5.923164,0.383087 8.989614,0.851306 3.06645,0.468218 6.697536,1.250166 8.069079,1.737661 1.371544,0.487496 3.936128,1.086977 5.699075,1.332181 2.221772,0.30902 4.339229,0.304924 6.900468,-0.01335 2.371513,-0.294695 4.287323,-0.314035 5.348403,-0.05399 0.90931,0.22285 3.579106,0.909074 5.932879,1.524943 2.713929,0.595727 5.821248,1.494199 8.04715,1.683136 0.342967,0.02335 2.007906,-1.283598 3.378009,-2.150721 z"
       id="path17"
       sodipodi:nodetypes="cscsssssssssssssssscsssssssssssssssssssssssssssssssssssssscssssssscssssssssssssssssssssssssssccsssssssssscssssssssssssssssssssssssssssssssssssssssssssssssssssssssssssssssssssscsssssssssssssssssssssssssssssssssssscsssscsssssssssssssscsssssscsssssssscscscsssssssssssssssssssssssssssssssssssssssssssssssssssssssssssscsssssssssssssssssss" /></g></svg>
