<?xml version="1.0" encoding="UTF-8" standalone="no"?>
<svg
   width="390.9346"
   height="322.5213"
   viewBox="0 0 390.9346 322.5213"
   version="1.1"
   id="svg1"
   xmlns="http://www.w3.org/2000/svg">
  <g
     id="layer1"
     transform="translate(-63.535492,-101.27572)">
    <path
       id="path1"
       style="fill:#000000;stroke-width:1.59271"
       d="m 268.54492,101.27734 v 3.01563 15.44922 c 24.15125,-0.0617 55.11724,0.0399 67.30664,0.34375 39.63674,0.98812 80.62822,2.72979 81.35547,3.45703 0.15578,0.15577 -0.40642,0.94969 -1.25,1.76367 -2.84392,2.74418 -12.50031,11.31729 -17.11719,15.19727 -2.52083,2.11848 -4.58398,4.02112 -4.58398,4.22851 0,0.41062 5.61836,7.05778 9.49609,11.23633 l 2.42188,2.61328 7.79101,-6.86328 c 4.28482,-3.77439 9.67075,-8.76823 11.96875,-11.09766 2.29799,-2.32943 4.45849,-4.23632 4.80079,-4.23632 0.81833,0 1.0333,2.84885 2.28515,30.38085 1.28413,28.24162 1.93212,57.78049 1.9375,83.16211 2.80532,-0.34543 5.62391,-0.59043 8.4375,-0.82812 3.73978,-0.0581 7.40897,-0.42988 11.07422,-0.97266 0.0507,-39.05504 -1.35059,-79.55959 -4.2168,-114.62304 -1.38327,-16.922 -1.73345,-19.61755 -2.85937,-21.99024 -1.25305,-2.6406 -4.36337,-4.81311 -7.44727,-5.20312 -8.07298,-1.02092 -59.91181,-3.46364 -95.71289,-4.50977 -12.65099,-0.36951 -48.27506,-0.54397 -75.6875,-0.52344 z m -8.70898,0.0293 c -19.03638,0.0645 -34.59032,0.22693 -45.2461,0.48828 -38.5009,0.94432 -68.72052,2.30388 -71.07031,3.19727 -1.51068,0.57436 -5.03758,3.04477 -9.5957,6.7207 -6.11336,4.93017 -17.38014,14.88239 -17.65235,15.5918 -0.17208,0.44841 1.04358,2.14193 3.0586,4.25781 1.84033,1.93246 4.4392,4.75117 5.77539,6.26367 1.33619,1.51251 2.65508,2.75 2.92969,2.75 0.2746,0 5.15695,-3.98907 10.84961,-8.86523 l 10.34961,-8.86719 3.73828,-0.29102 c 4.83348,-0.37757 26.04838,-1.24371 46.95117,-1.91601 12.9146,-0.41537 35.01589,-0.70834 59.91211,-0.83789 v -15.50586 z m -150.97266,32.875 c -0.68327,-0.72016 -21.188994,19.33923 -34.498046,33.74805 -4.082928,4.42033 -4.548341,5.9183 -5.894531,18.95312 -2.408958,23.32535 -4.727975,67.94323 -4.734375,91.0625 l -0.0039,8.77344 h 9.615234 9.615235 l 0.357421,-14.53516 c 0.563932,-22.89654 1.737684,-46.79513 3.478516,-70.8457 0.88929,-12.28609 1.158099,-14.64296 1.75586,-15.39453 1.044387,-1.31311 39.828116,-3.04223 89.369146,-3.98438 14.54875,-0.27669 30.28136,-0.50767 34.96289,-0.51367 l 8.51172,-0.0117 v -9.42968 -9.42774 l -15.32032,0.002 c -27.05925,0.004 -73.8812,1.32771 -94.58984,2.67383 -4.70508,0.30594 -8.68527,0.42606 -8.84375,0.26758 -0.24961,-0.24961 10.42156,-10.80765 16.24414,-16.07226 l 1.99024,-1.80079 -5.83203,-6.54687 c -3.2079,-3.60118 -5.99015,-6.71408 -6.1836,-6.91797 z m 277.97656,16.83789 -3.17382,2.76563 c -1.74526,1.52116 -5.91036,5.07156 -9.25586,7.89062 l -6.08204,5.12695 -3.92968,-0.28125 c -32.6176,-2.3369 -80.30285,-3.93734 -117.46289,-3.94336 l -15.58399,-0.002 v 9.42774 9.42773 l 7.20313,0.006 c 14.66424,0.009 68.41929,1.04238 82.10547,1.57812 23.79688,0.93152 40.79579,2.06366 41.45312,2.76172 0.3614,0.38381 1.135,7.93339 1.9707,19.22657 1.66832,22.54487 2.29184,35.36388 2.67383,55 0.15973,8.2107 0.4237,17.58119 0.58789,20.82226 l 0.29883,5.89063 h 9.63867 9.63868 l -0.002,-8.77344 c -0.004,-10.29553 -0.80372,-33.40816 -1.58008,-45.70117 -0.56588,-8.96 -3.4552,-45.74625 -3.91211,-49.8086 l -0.25976,-2.31054 6.41211,-5.38867 c 3.52719,-2.96333 7.55276,-6.38165 8.94531,-7.59571 l 2.5332,-2.20703 -3.64453,-3.92773 c -2.00438,-2.1607 -4.75367,-5.2918 -6.10937,-6.95703 z m -235.01562,106.0918 c -5.95427,0.18581 -11.90201,1.8284 -16.63281,4.88867 -6.42668,4.15731 -11.98069,12.20283 -13.81446,20.01367 -0.59038,2.51476 -1.07226,5.16335 -1.07226,5.88477 0,2.13526 1.39286,4.84063 3.39843,6.60156 1.51776,1.33261 2.33173,1.64648 4.26563,1.64648 5.0839,0 8.12115,-2.73408 9.06641,-8.1621 1.2465,-7.15803 4.65775,-11.26426 11.07031,-13.32618 4.20667,-1.35263 7.13912,-1.18664 10.86133,0.61524 4.54947,2.20237 7.32167,6.03297 8.47265,11.70703 0.81683,4.02673 2.06299,6.03785 4.63672,7.48437 4.98459,2.80149 10.65667,0.35139 12.16602,-5.2539 0.84214,-3.12751 -0.61406,-9.56992 -3.34571,-14.80078 -2.44383,-4.67972 -8.36845,-11.10416 -12.40234,-13.44922 -4.75498,-2.76426 -10.71565,-4.03542 -16.66992,-3.84961 z m 147.23633,0.006 c -3.511,-0.13387 -6.9771,0.26376 -10.07617,1.23633 -5.84544,1.83444 -8.55384,3.40192 -12.73438,7.37304 -6.39028,6.07014 -9.80192,13.28152 -9.89062,20.90235 -0.0356,3.05777 0.16735,4.13831 0.98632,5.24414 4.82921,6.52067 13.5955,3.97952 15.26172,-4.42383 0.73132,-3.68833 3.02796,-7.88986 5.41602,-9.9082 4.03389,-3.40937 9.56362,-4.64633 14.11328,-3.15821 5.94694,1.94515 9.81176,6.08979 10.95508,11.74805 1.06202,5.25588 2.0324,7.33458 4.07226,8.7207 2.42819,1.65 6.42562,1.77605 8.70508,0.27344 2.4061,-1.58609 3.95327,-4.57507 3.94727,-7.62109 -0.0175,-9.04365 -6.37756,-20.35122 -14.34375,-25.5 -4.58681,-2.9646 -10.56045,-4.66361 -16.41211,-4.88672 z m 155.32031,1.87109 c -3.22952,0.41861 -6.47138,0.70049 -9.75195,0.76758 -3.25236,0.2731 -6.50982,0.56034 -9.74219,1.02148 -0.21733,22.54101 -0.94073,45.35024 -2.17188,70.20313 l -0.85546,17.28515 -7.01172,6.83399 -7.01172,6.83203 4.1875,4.90234 c 2.30287,2.69626 4.95273,5.91888 5.88867,7.16211 0.93596,1.24322 1.84235,2.26735 2.01562,2.27735 0.78917,0.0406 18.8801,-18.50974 19.76563,-20.26758 1.41024,-2.79942 1.53309,-4.12165 2.69141,-28.95508 1.10181,-23.62212 1.76768,-46.24802 1.99609,-68.0625 z m -380.984376,37.1582 c -7.172276,0 -9.607598,0.16259 -9.77539,0.6543 -0.372901,1.09282 0.541642,38.25064 1.408203,57.21875 1.002739,21.94831 1.610462,31.92222 2.808594,46.13867 1.05466,12.51399 1.508642,13.84209 5.550781,16.21094 1.982622,1.1619 3.160969,1.36419 10.5625,1.82813 4.581574,0.28718 13.750778,0.87763 20.376948,1.31054 23.76817,1.55288 80.78796,3.73712 106.59571,4.08399 4.17736,0.0563 8.24289,0.12609 9.03515,0.15429 l 1.43946,0.0508 v -9.52735 -9.5293 l -18.72461,-0.35742 c -43.16262,-0.82671 -113.004712,-4.05 -114.607424,-5.28906 -1.354282,-1.047 -4.297776,-51.42971 -4.783203,-81.86328 l -0.335937,-21.08399 z m 294.144536,0 0.002,3.01172 c 0.008,27.14636 -3.44936,99.37588 -4.79688,100.22266 -0.26833,0.16862 -5.48592,0.59538 -11.5957,0.94726 -6.10977,0.35191 -14.88072,0.85623 -19.49023,1.1211 -28.6445,1.64592 -70.84482,3.12695 -89.14063,3.12695 h -11.16797 v 9.58789 9.58985 l 12.17774,-0.16016 c 22.2609,-0.29384 68.34563,-1.89451 87.3457,-3.0332 30.32777,-1.81754 39.52872,-2.43671 42.30859,-2.84375 4.02036,-0.58869 7.25101,-2.55666 22.2168,-13.54102 15.86704,-11.64586 27.23319,-21.00497 26.68945,-21.97656 -0.19905,-0.35568 -2.81201,-3.6005 -5.80664,-7.21094 -4.80985,-5.79906 -5.54907,-6.48855 -6.3457,-5.90625 -0.49598,0.36253 -4.87591,3.86106 -9.73242,7.77344 -10.60509,8.54337 -16.36198,12.76694 -16.80274,12.32617 -0.17912,-0.17911 -0.0444,-3.21254 0.29883,-6.74023 1.53118,-15.73552 3.21976,-54.88123 3.22071,-74.64063 v -11.6543 h -9.68946 z m -165.25196,9.35743 c -1.14678,-0.0494 -2.36984,0.2728 -3.75,0.92773 -3.92797,1.86395 -4.48639,6.85924 -1.36914,12.25195 4.24765,7.34821 12.88746,13.66321 21.08594,15.41407 7.42344,1.58534 15.56961,0.55035 21.7207,-2.76172 5.63988,-3.0368 12.69799,-11.07565 13.93555,-15.87305 1.57491,-6.10508 -3.73309,-10.49832 -9.56641,-7.91797 -1.82792,0.80857 -2.69272,1.65467 -3.94922,3.85547 -5.61634,9.83716 -15.68202,12.5722 -24.73242,6.72266 -2.55463,-1.65115 -3.75114,-2.93827 -6.04883,-6.5 -2.64862,-4.10569 -4.80326,-6.01057 -7.32617,-6.11914 z m 116.53906,0.23047 c -14.97793,-0.64525 -25.97203,5.59389 -24.95703,14.16406 0.72624,6.132 7.38814,10.91011 17.16407,12.30859 4.54064,0.64955 6.34615,0.65916 10.93554,0.0645 11.22152,-1.45431 18.33399,-6.62732 18.33399,-13.33789 0,-7.49809 -8.35685,-12.63405 -21.47657,-13.19921 z M 136.01953,305.875 c -6.86678,-0.0166 -8.02348,0.11835 -12.04883,1.41211 -8.03028,2.58097 -11.93966,6.8691 -11.39843,12.50195 0.6074,6.32121 7.44471,11.1247 17.73242,12.45703 5.17919,0.67074 7.29376,0.63281 12.32422,-0.22461 12.01591,-2.04806 18.8192,-9.2545 15.72656,-16.65625 -1.28173,-3.06763 -5.70308,-6.46908 -10.46875,-8.05273 -3.84297,-1.27703 -5.03658,-1.4209 -11.86719,-1.4375 z" />
  </g>
</svg>
