<?xml version="1.0" encoding="UTF-8" standalone="no"?>
<!-- Created with Inkscape (http://www.inkscape.org/) -->

<svg
   width="438.78952"
   height="325.91711"
   viewBox="0 0 116.09639 86.232239"
   version="1.1"
   id="svg1"
   xml:space="preserve"
   xmlns:inkscape="http://www.inkscape.org/namespaces/inkscape"
   xmlns:sodipodi="http://sodipodi.sourceforge.net/DTD/sodipodi-0.dtd"
   xmlns="http://www.w3.org/2000/svg"
   xmlns:svg="http://www.w3.org/2000/svg"><sodipodi:namedview
     id="namedview1"
     pagecolor="#ffffff"
     bordercolor="#000000"
     borderopacity="0.25"
     inkscape:showpageshadow="2"
     inkscape:pageopacity="0.0"
     inkscape:pagecheckerboard="0"
     inkscape:deskcolor="#d1d1d1"
     inkscape:document-units="mm"><inkscape:page
       x="0"
       y="0"
       width="116.09639"
       height="86.232239"
       id="page2"
       margin="0"
       bleed="0" /></sodipodi:namedview><defs
     id="defs1" /><g
     inkscape:label="Capa 1"
     inkscape:groupmode="layer"
     id="layer1"
     transform="translate(-10.234978,-24.94753)"><path
       style="fill:#ffffff;stroke:none;stroke-width:2.32903;stroke-dasharray:none;stroke-opacity:1"
       d="m 178.543,341.39514 c -3.15029,-3.15028 3.9332,-12.31547 15.24821,-19.72935 3.63487,-2.38166 4.15363,-2.38423 10.26373,-0.0507 l 6.43535,2.45767 10.57192,-6.04878 c 5.81456,-3.32684 13.62989,-8.73966 17.3674,-12.0285 l 6.79547,-5.97971 -1.68504,-5.5806 c -1.99383,-6.60324 -13.94639,-21.82535 -19.44457,-24.76353 -3.45806,-1.84795 -4.37148,-1.79309 -8.66778,0.52062 -8.5275,4.59236 -23.13489,17.71459 -25.6726,23.06243 -1.48764,3.13498 -2.14703,6.80944 -1.65944,9.24737 0.68286,3.41432 -0.0538,4.77927 -4.72212,8.75014 -9.53351,8.10911 -15.17759,10.47913 -20.47132,8.59617 -2.51193,-0.89348 -7.22968,-1.25646 -10.48389,-0.80661 -7.44208,1.02875 -18.08491,-4.29526 -27.79243,-13.90298 -10.59303,-10.4841 -11.16334,-16.57928 -9.5985,-102.58395 0.30691,-16.86768 1.01872,-31.39193 1.5818,-32.27611 0.56309,-0.88419 4.08372,-2.3484 7.82364,-3.25381 3.73991,-0.90541 13.21883,-3.51419 21.06426,-5.79729 10.49223,-3.05334 19.74055,-4.54674 34.97219,-5.64724 14.28733,-1.03226 24.45949,-2.60557 32.80817,-5.07436 20.70503,-6.12269 58.31105,-10.89529 62.7391,-7.96225 1.76924,1.17191 2.29507,7.78556 3.03738,38.20298 0.49375,20.23215 1.39102,44.31821 1.99395,53.52458 1.1948,18.24386 -1.59533,81.4203 -3.77809,85.54698 -0.70836,1.33919 -3.68724,2.83078 -6.61973,3.31464 -2.93251,0.48386 -14.88116,3.43318 -26.55257,6.55403 -11.67141,3.12084 -30.49797,7.24587 -41.83679,9.16672 -23.12791,3.91798 -22.41735,3.84183 -23.7177,2.54149 z m 42.19892,-89.7108 c 3.20243,-2.10969 5.34915,-4.66069 5.34915,-6.35654 0,-3.74286 -1.91524,-3.57264 -8.25223,0.73346 -5.81719,3.95289 -11.27395,4.43694 -20.92351,1.85608 -7.05941,-1.88811 -9.64081,-0.83414 -6.25344,2.55323 6.79828,6.79828 20.74843,7.36118 30.08003,1.21377 z m -46.11323,-8.41883 c 5.27781,-2.72927 6.53684,-7.58288 3.15999,-12.18189 -5.17683,-7.05042 -15.90427,-4.84641 -15.86566,3.25968 0.0251,5.26094 0.97202,7.03271 4.97071,9.30022 3.59303,2.03748 3.00868,2.06604 7.73496,-0.37801 z m 73.73043,-11.24291 c 5.03655,-4.33226 5.33638,-11.61854 0.63474,-15.42569 -4.32758,-3.50426 -6.65481,-3.31738 -10.84287,0.87067 -4.27888,4.27889 -4.46666,9.15111 -0.54485,14.13689 3.63956,4.62696 5.76389,4.70956 10.75298,0.41813 z"
       id="path30"
       transform="scale(0.26458333)" /><path
       style="fill:#ffffff;stroke:none;stroke-width:2.32903;stroke-dasharray:none;stroke-opacity:1"
       d="m 146.55978,350.54815 c -12.68887,-9.35826 -16.32449,-11.8296 -27.39947,-18.6251 -14.26736,-8.7543 -20.675242,-16.44678 -26.823152,-32.20039 -2.771279,-7.10123 -5.118176,-11.04169 -6.771172,-11.36889 -2.213536,-0.43814 -2.410769,0.2439 -1.577484,5.45498 1.536676,9.60984 8.478051,22.89797 17.102648,32.74025 7.14247,8.15089 8.03167,9.85789 8.03167,15.41843 0,4.63093 -0.46249,5.9709 -1.78305,5.16599 -7.373088,-4.49417 -52.581799,-38.29619 -55.987854,-41.86149 l -4.279326,-4.47938 v -26.65243 c 0,-14.65882 0.13136,-37.24375 0.291911,-50.18871 0.160551,-12.94496 0.160551,-38.40749 0,-56.5834 -0.160551,-18.17591 0.161684,-33.50017 0.716079,-34.0539 0.554395,-0.55374 9.23463,3.83915 19.289412,9.76197 22.872761,13.47332 42.282808,22.94093 42.947048,20.94823 0.80213,-2.40642 -2.64266,-5.65232 -9.90342,-9.33163 -7.626892,-3.86484 -40.657698,-25.68152 -41.882385,-27.66311 -0.439319,-0.71083 2.900804,-2.01164 7.422497,-2.89069 4.521691,-0.87905 16.244994,-3.47173 26.051784,-5.7615 9.806794,-2.28978 25.854264,-5.13958 35.661054,-6.33289 9.80679,-1.19332 28.39757,-4.10412 41.31284,-6.46845 12.91528,-2.36434 24.79041,-3.91115 26.38918,-3.43736 12.44009,3.68658 72.89139,30.19383 71.66214,31.42308 -0.25445,0.25445 -7.53083,1.44847 -16.16975,2.65339 -8.63891,1.20492 -24.41665,4.38435 -35.06164,7.06539 -11.72397,2.95279 -24.89864,5.22765 -33.41685,5.77006 -19.86608,1.265 -32.2879,3.19837 -45.44405,7.07304 -6.27634,1.84847 -14.18935,4.10575 -17.58446,5.01619 -9.23732,2.47708 -10.75624,7.18617 -9.90771,30.71663 0.36779,10.19906 -0.11546,26.56749 -1.0739,36.37428 -0.95844,9.80679 -1.48521,27.69603 -1.17061,39.75387 0.51637,19.79161 0.92113,22.66137 4.16262,29.51331 6.95093,14.69307 25.86553,28.14211 38.95684,27.6999 9.7443,-0.32917 9.71434,-0.34323 9.04091,4.24512 -0.54634,3.7225 0.15039,4.70175 5.97222,8.39384 l 6.59073,4.17972 -5.17042,4.53968 c -8.93618,7.84607 -13.69391,8.78654 -20.19488,3.99197 z"
       id="path31"
       transform="scale(0.26458333)" /><path
       style="fill:#ffffff;stroke:none;stroke-width:2.32903;stroke-dasharray:none;stroke-opacity:1"
       d="m 156.37883,410.92932 c -4.21411,-1.45516 -8.26156,-3.52038 -8.99434,-4.58937 -0.77812,-1.13511 -0.96332,-10.54741 -0.44522,-22.62702 0.96878,-22.58737 1.62835,-24.24952 9.62255,-24.24952 2.25526,0 5.34207,-0.66448 6.85958,-1.47663 2.46707,-1.32034 2.75996,-0.98063 2.76721,3.2095 0.004,2.57736 -0.74043,11.15743 -1.65531,19.06681 l -1.66341,14.38069 6.64785,6.12778 c 4.32314,3.98493 6.64786,7.3113 6.64786,9.51222 0,3.03803 -0.6205,3.37967 -6.06238,3.33786 -3.33431,-0.0256 -9.51028,-1.23715 -13.72439,-2.69232 z"
       id="path32"
       transform="scale(0.26458333)" /><path
       style="fill:#ffffff;stroke:none;stroke-width:2.32903;stroke-dasharray:none;stroke-opacity:1"
       d="m 224.66463,396.11061 -4.99255,-1.70572 v -19.76964 -19.76963 l 4.5275,-3.76348 c 2.49012,-2.06992 6.60225,-4.98232 9.13805,-6.47201 l 4.61056,-2.70852 -0.99715,11.98039 c -0.54842,6.58922 -1.37436,15.598 -1.8354,20.01951 l -0.83827,8.03912 8.03161,5.13776 c 8.08054,5.16905 9.95039,8.41098 5.77528,10.01312 -3.73698,1.43402 -18.08792,0.82069 -23.41963,-1.0009 z"
       id="path33"
       transform="scale(0.26458333)" /><path
       style="fill:#ffffff;stroke:none;stroke-width:2.32903;stroke-dasharray:none;stroke-opacity:1"
       d="m 296.12485,281.88873 c -1.03997,-1.25308 -2.228,-6.47854 -2.64007,-11.61213 l -0.74923,-9.33381 11.25408,6.70707 c 9.92763,5.91656 12.51502,6.8072 21.95239,7.55656 11.99143,0.95217 14.26442,1.89022 14.26442,5.88686 0,2.99597 -3.48484,3.78177 -5.10998,1.15225 -0.96994,-1.5694 -10.76186,-1.22111 -29.8932,1.06329 -5.5965,0.66825 -7.60613,0.3539 -9.07841,-1.42009 z"
       id="path34"
       transform="scale(0.26458333)" /><path
       style="fill:#ffffff;stroke:none;stroke-width:0.495181;stroke-dasharray:none;stroke-opacity:1"
       d="m 328.60316,304.14754 c -2.01327,-0.79541 -3.61435,-1.77584 -5.52752,-3.3848 -2.2469,-1.88962 -2.21191,-2.43397 0.33113,-5.15269 2.68545,-2.87096 5.77199,-3.7504 12.15397,-3.46298 7.37874,0.33231 10.9359,2.09332 10.9359,5.41393 0,3.20665 -6.74375,6.71575 -13.64757,7.10151 -2.15751,0.12055 -2.84988,0.0366 -4.24591,-0.51497 z"
       id="path35"
       transform="scale(0.26458333)" /><path
       style="fill:#666666;stroke:none;stroke-width:0.495181;stroke-dasharray:none;stroke-opacity:1"
       d="m 471.28186,270.87405 c -4.02427,1.08731 -7.06265,4.28713 -10.85289,5.91691 -8.7715,4.4138 -18.43874,6.64725 -28.01864,8.56101 -14.25335,2.45211 -28.81397,2.34622 -43.24608,1.93826 -4.05485,-0.12316 -8.25131,-0.60769 -11.56549,-3.14889 -2.59352,-1.96215 -5.7745,-3.13698 -9.05814,-2.7048 -2.80459,0.28639 -6.00999,0.66798 -8.17073,2.63194 -0.18294,1.24155 1.72169,1.44358 2.55833,1.89431 5.66863,1.57417 11.60473,1.95342 17.39532,2.93269 7.99636,1.18937 16.05325,2.26783 24.15823,1.78763 18.46017,-0.75808 37.35724,-2.76219 54.38358,-10.41204 4.69554,-2.26124 9.47188,-4.79385 13.11015,-8.58432 0.27641,-0.46004 -0.22708,-0.91584 -0.69364,-0.8127 z"
       id="path38"
       transform="scale(0.26458333)" /><path
       style="fill:#666666;stroke:none;stroke-width:0.495181;stroke-dasharray:none;stroke-opacity:1"
       d="m 410.49924,260.58625 c -9.10705,2.04873 -18.02115,5.06768 -26.56241,8.83479 -2.82036,1.40081 -5.47447,3.41521 -7.39599,5.89854 0.32562,1.20101 1.59127,-0.44856 2.18752,-0.71081 9.71645,-5.61529 20.7136,-8.40382 30.98188,-12.77505 0.3675,-0.16583 2.01901,-0.94003 0.789,-1.24747 z"
       id="path39"
       transform="scale(0.26458333)" /><path
       style="fill:#666666;stroke:none;stroke-width:0.495181;stroke-dasharray:none;stroke-opacity:1"
       d="m 351.93849,282.10724 c -2.18917,0.17302 -5.38783,0.26903 -6.24685,2.73188 0.0897,1.7796 2.52167,1.44914 3.74242,1.28538 1.34477,-0.0477 3.30106,-0.91583 4.31936,0.29262 0.0129,0.71971 0.40536,2.65486 1.42044,1.92985 0.80624,-1.88495 1.23402,-5.21378 -1.2066,-6.0875 -0.65766,-0.18274 -1.35269,-0.16446 -2.02877,-0.15223 z"
       id="path40"
       transform="scale(0.26458333)" /><path
       style="fill:#666666;stroke:none;stroke-width:0.495181;stroke-dasharray:none;stroke-opacity:1"
       d="m 327.35805,285.80464 c -6.56,1.05022 -13.18763,1.97071 -19.59221,3.77293 -0.56607,-0.0236 -2.05877,0.77825 -0.9289,1.17017 3.23744,0.51227 6.5525,-0.15952 9.78194,-0.52245 3.86875,-0.75158 8.07759,-1.41317 11.25392,-3.88873 0.19895,-0.35714 -0.18716,-0.6226 -0.51475,-0.53192 z"
       id="path41"
       transform="scale(0.26458333)" /><path
       style="fill:#666666;stroke:none;stroke-width:0.149458;stroke-dasharray:none;stroke-opacity:1"
       d="m 419.40073,258.9173 c -1.11579,0.0587 -2.34912,0.0554 -3.31858,0.67133 -0.3226,0.50084 0.39717,0.74495 0.77771,0.76287 1.71583,0.19712 3.49042,0.28035 5.18829,-0.0887 0.52915,-0.007 0.80296,-0.61211 0.23563,-0.84475 -0.84665,-0.50109 -1.93082,-0.47507 -2.88305,-0.50077 z"
       id="path42"
       transform="scale(0.26458333)" /><path
       style="fill:#666666;stroke:none;stroke-width:0.149458;stroke-dasharray:none;stroke-opacity:1"
       d="m 441.98944,257.22387 c -3.40263,0.0423 -6.81438,0.0706 -10.20441,0.38313 -0.34308,-0.026 -0.82763,0.33875 -0.46036,0.65721 1.00479,0.20335 2.06776,0.1436 3.09598,0.19257 6.46752,0.0297 12.93719,0.0456 19.40334,-0.0905 0.31816,0.0107 0.94944,-0.13157 0.68116,-0.57925 -0.64764,-0.35248 -1.4634,-0.23414 -2.18133,-0.33619 -3.44079,-0.18808 -6.889,-0.22888 -10.33438,-0.22698 z"
       id="path43"
       transform="scale(0.26458333)" /><path
       style="fill:#f9f9f9;stroke:none;stroke-width:0.180431;stroke-dasharray:none;stroke-opacity:1"
       d="m 224.50464,288.37283 c -1.3177,0.45313 -2.42307,1.38773 -3.6033,2.11158 -4.44861,3.03564 -8.70946,6.34586 -12.82666,9.81521 -0.36249,0.32769 -1.1134,0.94316 -0.5616,1.43443 0.54054,0.42511 1.21911,0.18307 1.71027,-0.19144 4.12698,-2.73037 8.01258,-5.81408 11.82211,-8.96792 1.29135,-1.16254 2.74235,-2.20804 3.7784,-3.61609 0.15554,-0.2472 0.005,-0.61691 -0.31922,-0.58577 z"
       id="path45"
       transform="scale(0.26458333)" /><path
       style="fill:#f9f9f9;stroke:none;stroke-width:0.180431;stroke-dasharray:none;stroke-opacity:1"
       d="m 215.82507,281.72988 c -1.42484,0.20449 -2.89699,1.27463 -3.12269,2.75966 0.004,0.90493 1.13736,1.23036 1.84668,0.89139 1.19279,-0.42398 2.45961,-1.43088 2.48555,-2.79203 -0.10399,-0.52339 -0.69141,-0.89975 -1.20954,-0.85902 z"
       id="path46"
       transform="scale(0.26458333)" /><path
       style="fill:#f9f9f9;stroke:none;stroke-width:0.180431;stroke-dasharray:none;stroke-opacity:1"
       d="m 227.9923,298.51294 c -1.5286,0.46115 -2.82836,1.48119 -4.18247,2.3014 -3.55787,2.41731 -6.98816,5.04394 -10.15929,7.95268 -0.28982,0.3938 -1.07481,0.84524 -0.74571,1.37421 0.97093,0.0743 1.79194,-0.68131 2.62755,-1.09121 4.14972,-2.58047 8.23336,-5.33756 11.81631,-8.67723 0.37944,-0.48662 1.19051,-0.94336 1.05737,-1.64704 -0.0729,-0.15435 -0.25045,-0.22752 -0.41376,-0.21281 z"
       id="path47"
       transform="scale(0.26458333)" /><path
       style="fill:#f9f9f9;stroke:none;stroke-width:0.180431;stroke-dasharray:none;stroke-opacity:1"
       d="m 171.89803,326.70112 c -1.56928,0.0963 -2.9154,1.10509 -3.84573,2.31655 -0.21801,0.32561 -0.94499,0.85932 -0.39865,1.21645 0.71351,-0.0568 1.18196,-0.79771 1.83449,-1.05576 0.75506,-0.38838 1.61129,-0.91302 2.48134,-0.80409 0.12598,0.78055 -0.58467,1.44735 -0.95245,2.05938 -0.36975,0.64735 -1.14001,1.18712 -1.16877,1.97672 0.25014,0.67418 1.09631,0.15116 1.5663,0.0397 1.27785,-0.50967 2.77527,-1.17348 3.2863,-2.55613 0.14045,-1.19534 -0.85239,-2.20704 -1.75473,-2.84772 -0.31437,-0.2001 -0.66615,-0.36502 -1.0481,-0.34512 z"
       id="path48"
       transform="scale(0.26458333)" /><path
       style="fill:#666666;stroke:none;stroke-width:0.180431;stroke-dasharray:none;stroke-opacity:1"
       d="m 211.40668,278.54869 c -4.93264,3.92592 -9.7666,8.03536 -14.18884,12.54669 -1.85469,2.01774 -4.04837,4.12211 -4.44603,6.97271 -0.26909,2.46257 0.59596,4.86599 0.56327,7.3271 0.0389,1.66253 0.12439,3.59251 -1.15962,4.8684 -3.41592,3.79533 -7.88758,6.47628 -12.04745,9.39027 -1.30366,0.94638 -2.7313,1.75199 -3.94458,2.80826 -0.38537,0.73203 0.18028,1.56374 0.52534,2.20885 0.62344,0.92062 1.54468,2.09027 2.79203,1.91035 1.50134,-0.53677 2.61773,-1.78181 3.7899,-2.81232 3.30379,-3.33641 6.99915,-6.28114 11.19989,-8.42183 1.78021,-0.90124 3.80103,-2.11949 5.87125,-1.43641 2.85366,0.96993 5.28827,2.87002 8.18422,3.74019 2.51453,0.59851 4.87781,-0.83369 6.96294,-2.03962 5.53732,-3.38552 10.9186,-7.02235 16.26322,-10.70278 2.323,-1.68886 4.74486,-3.27538 6.86491,-5.22031 1.09859,-0.9708 0.75099,-2.60673 0.31934,-3.81476 -1.58643,-3.849 -4.01455,-7.27448 -6.34184,-10.70133 -1.58309,-2.22877 -3.17792,-4.47828 -4.88493,-6.59763 -0.74987,-0.48693 -4.53956,-6.54582 -7.99069,-6.58442 -3.53441,-0.0395 -5.45915,2.93148 -8.33233,6.55859 z m 6.45522,0.89313 c 0.95581,0.26695 1.81874,1.14372 2.02259,2.12208 -0.47259,1.3604 -1.72077,2.25557 -2.6393,3.30678 -3.91774,3.99663 -8.47819,7.27939 -12.93305,10.63205 -1.34772,0.90976 -2.59571,2.03335 -4.09901,2.67545 -0.83712,-0.36461 -1.4837,-1.1733 -1.80805,-1.99582 -0.23988,-1.22401 -0.14047,-2.87706 1.20911,-3.42184 1.40054,-0.45326 2.88103,0.38068 4.28064,-0.20482 2.46372,-0.8409 4.37473,-2.73066 6.09063,-4.61066 0.32191,-0.42967 -0.35044,-0.7393 -0.64038,-0.38159 -1.69192,1.02287 -3.32558,2.15116 -5.10535,3.02233 2.28138,-2.65261 4.93412,-4.99035 7.61313,-7.23844 1.8232,-1.4143 3.62968,-2.94092 5.76429,-3.86149 0.0771,-0.0367 0.16424,-0.0296 0.24475,-0.044 z m 7.66255,6.96691 c 0.94555,0.5373 1.46197,1.80622 1.28228,2.8706 -0.58673,1.10534 -1.61532,1.91817 -2.4687,2.81728 -4.14239,3.81651 -8.68226,7.21234 -13.32075,10.36362 -1.44602,0.89623 -2.86265,1.96689 -4.52791,2.40903 -0.48853,0.0878 -1.14657,0.11385 -1.33083,-0.46944 -0.43744,-0.94801 -0.82507,-2.04342 -0.62873,-3.09182 4.3355,-3.5595 8.71774,-7.10577 13.17799,-10.51891 2.23409,-1.57668 4.44183,-3.2456 7.00296,-4.24891 0.26198,-0.089 0.53637,-0.13912 0.81369,-0.13145 z m 4.62577,9.50686 c 1.05893,-0.0416 2.1982,0.32338 2.91851,1.10723 0.11252,0.72563 -0.59155,1.291 -0.96003,1.84733 -2.52076,2.91523 -5.73629,5.16543 -8.87382,7.40376 -3.44103,2.3253 -6.91274,4.64788 -10.64948,6.4759 -0.47075,0.30685 -1.04074,0.29369 -1.44458,-0.12583 -0.53511,-0.41777 -1.26905,-1.12263 -0.73103,-1.82898 1.91196,-3.36349 5.06693,-5.73172 7.97108,-8.1924 2.50982,-1.9607 4.92098,-4.11131 7.74754,-5.61354 1.24702,-0.62698 2.61558,-1.0644 4.02181,-1.07347 z"
       id="path44"
       transform="scale(0.26458333)"
       sodipodi:nodetypes="cccccccccccccccccccacsccccccccccccscccccccccccccccccccc" /><path
       style="fill:#000000"
       d="m 41.195356,110.54778 c -0.944482,-0.33646 -2.218633,-0.9871 -2.831446,-1.44587 -1.113641,-0.8337 -1.114124,-0.83706 -0.949817,-6.62455 0.1571,-5.533671 0.128124,-5.774351 -0.653411,-5.427521 -0.44979,0.1996 -1.503882,0.37717 -2.342426,0.3946 -1.437011,0.0299 -1.524383,-0.0497 -1.520414,-1.38404 0.0041,-1.37294 -0.05102,-1.41572 -1.8234,-1.41572 -1.446924,0 -2.375766,-0.38563 -4.459215,-1.85133 -1.447383,-1.01823 -5.201987,-3.708 -8.343564,-5.97726 -3.141576,-2.26926 -6.135417,-4.71955 -6.652978,-5.44509 -0.866463,-1.21464 -0.953548,-1.95765 -1.099144,-9.37789 -0.09435,-4.808579 0.05474,-9.648389 0.369666,-12.000266 0.448113,-3.346501 0.428102,-4.277215 -0.132553,-6.165145 -0.52434,-1.765644 -0.615178,-3.82479 -0.441053,-9.9979 0.120609,-4.275857 0.412621,-8.408295 0.648916,-9.183197 0.236295,-0.774901 0.910417,-1.7871 1.498048,-2.249331 0.608269,-0.478465 2.423878,-1.055437 4.215636,-1.339664 1.730969,-0.274583 5.303471,-1.076215 7.938894,-1.781404 2.720763,-0.728024 5.891322,-1.281569 7.33603,-1.280791 1.399393,7.53e-4 5.952711,-0.684712 10.118485,-1.523256 4.165774,-0.838544 8.270028,-1.524625 9.120563,-1.524625 0.850536,0 2.667972,0.560787 4.038748,1.246194 1.370775,0.685406 3.535707,1.588003 4.810959,2.00577 1.275252,0.417767 4.00721,1.621189 6.071017,2.674271 2.063807,1.053082 3.965109,1.914694 4.225118,1.914694 0.260008,0 1.228802,0.623209 2.152875,1.384908 0.924074,0.7617 2.035389,2.178397 2.46959,3.148215 0.692037,1.545715 0.757828,2.573161 0.533155,8.326148 -0.156093,3.996894 -0.03635,9.098133 0.306253,13.047276 0.562556,6.484436 0.562556,6.484436 2.225307,8.288308 0.914513,0.992129 2.6994,2.370065 3.966416,3.062078 1.811092,0.989176 2.899391,1.268487 5.089756,1.306284 2.451095,0.0423 2.906882,0.188503 3.79067,1.215963 0.883393,1.02701 1.32198,1.16789 3.635754,1.16789 2.394857,0 2.73907,-0.12146 3.832457,-1.35236 0.660704,-0.743805 2.107882,-1.812814 3.215942,-2.375578 1.10807,-0.562765 3.55836,-1.436606 5.44509,-1.94187 2.03429,-0.54478 5.49661,-1.021548 8.50724,-1.171462 3.35826,-0.167224 5.79131,-0.07322 7.18752,0.277703 1.16089,0.291776 2.45374,0.840196 2.87301,1.218711 0.46436,0.41922 0.76232,1.317452 0.76232,2.298122 0,0.885452 -0.2227,2.276234 -0.49488,3.090634 -0.27218,0.8144 -0.98736,2.01188 -1.58928,2.66107 -0.60192,0.64919 -1.89841,1.55233 -2.88108,2.00698 -0.98267,0.45465 -3.25685,1.19095 -5.05373,1.63622 -2.14168,0.53071 -4.84257,0.80925 -7.84093,0.80864 -3.58246,-7.3e-4 -4.90434,-0.17352 -6.0985,-0.79715 -0.83854,-0.43792 -2.01468,-1.24745 -2.613638,-1.79894 -0.59896,-0.5515 -1.383053,-1.05564 -1.742429,-1.12032 -0.359376,-0.0647 -1.491425,0.0349 -2.515665,0.22137 -1.576178,0.2869 -1.958543,0.56942 -2.489064,1.83914 -0.435926,1.04331 -1.124302,1.70803 -2.260435,2.18274 -1.029136,0.43 -2.28389,0.59535 -3.390953,0.44686 -1.14616,-0.15373 -2.091163,-0.62381 -2.717229,-1.35166 -0.720721,-0.83789 -1.377568,-1.11595 -2.636104,-1.11595 -0.921911,0 -1.91143,-0.23523 -2.198931,-0.52273 -0.2875,-0.2875 -0.522728,-0.83926 -0.522728,-1.22614 0,-0.38688 -0.692732,-1.03376 -1.539404,-1.43751 -0.846672,-0.40375 -1.630765,-0.73409 -1.742429,-0.73409 -0.111663,0 -0.203025,2.04732 -0.203025,4.54959 0,4.09654 -0.0976,4.66087 -0.980116,5.66717 -0.713122,0.81314 -1.692098,1.24119 -3.593759,1.57133 -1.437504,0.24956 -3.51556,0.74375 -4.617905,1.0982 -2.004264,0.64446 -2.004264,0.64446 -2.290865,5.09597 -0.15763,2.44833 -0.392011,4.94157 -0.520846,5.54053 -0.198517,0.92292 0.03777,1.242311 1.549243,2.094051 0.980919,0.55277 1.995079,1.46943 2.25369,2.03701 0.258611,0.56759 0.344326,1.53351 0.190478,2.14649 -0.181339,0.72251 -0.698722,1.2303 -1.471009,1.44373 -0.655207,0.18107 -2.31942,0.29694 -3.698251,0.25749 -1.378831,-0.0395 -3.19355,-0.29833 -4.03271,-0.57528 -0.83916,-0.27695 -1.707159,-0.84252 -1.928888,-1.25682 -0.221729,-0.41431 -0.381287,-2.70188 -0.354572,-5.0835 0.02671,-2.381621 -0.103378,-5.363581 -0.289094,-6.626571 -0.337666,-2.29635 -0.337666,-2.29635 -2.364629,-2.02592 -1.11483,0.14874 -3.399126,0.49601 -5.076214,0.77172 -3.04925,0.5013 -3.04925,0.5013 -2.925902,2.02592 0.06784,0.83855 -0.06112,3.28884 -0.286572,5.44509 -0.409921,3.920471 -0.409921,3.920471 1.042543,5.123701 0.798855,0.66178 1.680561,1.89438 1.959347,2.73911 0.421496,1.27715 0.38851,1.71653 -0.195817,2.60833 -0.601746,0.91838 -1.029816,1.06971 -2.979596,1.05333 -1.252293,-0.0105 -3.049654,-0.2944 -3.994136,-0.63085 z m 5.777275,-1.85761 c 0.09041,-0.6367 -0.299143,-1.40392 -1.105889,-2.17803 -0.685003,-0.6573 -1.567301,-1.39111 -1.960662,-1.63069 -0.600773,-0.36591 -0.656739,-0.81893 -0.349798,-2.83145 0.200972,-1.31771 0.459484,-3.727181 0.57447,-5.354381 0.209067,-2.95853 0.209067,-2.95853 -0.815924,-2.28693 -0.563745,0.36938 -1.724121,0.6716 -2.578613,0.6716 -0.860011,0 -1.631039,0.24309 -1.727027,0.54451 -0.09537,0.29948 -0.253595,3.15185 -0.351605,6.338621 -0.169724,5.51847 -0.13504,5.8172 0.729105,6.27968 0.499019,0.26707 1.790527,0.73401 2.870018,1.03766 1.079491,0.30365 2.550781,0.51615 3.269533,0.47223 0.994619,-0.0608 1.340165,-0.31469 1.446392,-1.06282 z m 19.181021,-3.54219 c 0.46934,-0.29741 0.483942,-0.57074 0.07165,-1.34112 -0.28481,-0.53218 -1.337752,-1.33028 -2.339871,-1.77356 -1.822034,-0.80597 -1.822034,-0.80597 -1.199112,-6.059681 0.342607,-2.88953 0.508615,-5.36801 0.368907,-5.50771 -0.139708,-0.13971 -0.906499,0.19112 -1.703981,0.73519 -0.797481,0.54406 -1.915591,1.29932 -2.484687,1.67835 -0.997818,0.66458 -1.033187,0.87535 -0.991734,5.90997 0.02364,2.871451 0.04821,5.351501 0.0546,5.511221 0.0064,0.15972 0.550682,0.48729 1.209538,0.72792 0.658856,0.24064 2.374059,0.45 3.811563,0.46524 1.437504,0.0152 2.87891,-0.14037 3.203127,-0.34582 z M 36.460519,95.465199 c 1.478569,-0.91381 1.483574,-0.9276 0.569257,-1.56801 -0.828745,-0.58047 -1.01926,-0.56426 -1.875875,0.1596 -0.524397,0.44313 -1.087531,0.99236 -1.251411,1.2205 -0.163879,0.22815 -0.201317,0.57119 -0.08319,0.76231 0.118123,0.19113 0.425093,0.34751 0.682154,0.34751 0.257061,0 1.138642,-0.41486 1.959069,-0.92191 z m 7.376095,-3.10746 c 1.034269,-0.77865 1.886551,-1.66075 1.893959,-1.96023 0.0074,-0.29948 -0.265525,-0.54451 -0.606519,-0.54451 -0.340994,0 -1.228716,-0.51221 -1.972715,-1.13824 -1.090474,-0.91758 -1.252545,-1.25896 -0.835977,-1.76089 0.357024,-0.43019 0.377025,-0.76237 0.06471,-1.07469 -0.305587,-0.30559 -0.955494,-0.31303 -2.005991,-0.023 -1.328998,0.36695 -1.921268,0.25535 -4.091333,-0.77093 -1.60025,-0.7568 -3.298812,-2.04688 -4.599033,-3.49304 -1.425335,-1.58532 -2.279543,-3.04258 -2.767616,-4.72149 -0.44074,-1.51609 -0.560158,-2.65959 -0.317863,-3.0437 0.227321,-0.36038 0.22453,-2.218533 -0.0067,-4.485277 -0.296241,-2.903608 -0.227468,-5.149732 0.275405,-8.994771 0.496136,-3.793514 0.56444,-5.916868 0.262945,-8.174018 -0.224014,-1.677088 -0.283919,-4.127378 -0.133122,-5.44509 0.150797,-1.317712 0.572801,-2.730255 0.937786,-3.138984 0.364986,-0.40873 1.572146,-0.878785 2.682578,-1.044568 1.110432,-0.165783 3.391129,-0.791742 5.068217,-1.391019 2.42458,-0.866381 4.298591,-1.15358 9.147751,-1.401929 5.03027,-0.257623 6.861521,-0.55031 10.454572,-1.670944 2.656182,-0.828434 6.395938,-1.580925 9.583357,-1.928305 5.227285,-0.569695 5.227285,-0.569695 2.831446,-1.633937 C 68.38476,33.932844 65.93447,32.743639 64.257382,31.8755 62.580295,31.007361 60.130004,29.948413 58.812293,29.522282 57.494581,29.096151 55.49186,28.284546 54.361801,27.718716 c -1.13006,-0.565831 -2.639327,-1.028783 -3.353928,-1.028783 -0.714601,0 -4.298542,0.598497 -7.964312,1.329994 -3.665771,0.731496 -8.331235,1.436026 -10.367698,1.565622 -2.036464,0.129595 -5.270847,0.697919 -7.187519,1.262941 -1.916671,0.565022 -4.955031,1.261076 -6.751911,1.546786 -1.796879,0.285711 -3.508905,0.644085 -3.804502,0.796386 -0.318576,0.164142 1.632796,1.711427 4.791679,3.799426 2.93102,1.937382 6.055198,3.860651 6.942618,4.273931 0.88742,0.413279 1.846463,1.032132 2.131208,1.375229 0.284745,0.343096 0.426956,0.714573 0.316026,0.825504 -0.110931,0.11093 -1.881867,-0.662864 -3.935413,-1.719544 -2.053546,-1.056679 -5.078084,-2.746996 -6.721195,-3.756259 -1.643111,-1.009263 -3.623508,-2.219185 -4.400882,-2.688716 -1.108191,-0.669343 -1.45342,-0.727114 -1.598693,-0.267523 -0.101907,0.322393 -0.286836,4.114588 -0.410953,8.427099 -0.182197,6.33052 -0.09404,8.29866 0.457632,10.217129 0.574668,1.998427 0.604116,2.93335 0.185227,5.880697 -0.27394,1.927474 -0.523512,7.032916 -0.554605,11.345427 -0.03542,4.912527 0.125605,8.289027 0.431148,9.040727 0.268224,0.65989 1.40582,1.83603 2.527991,2.61365 1.122171,0.77761 3.233951,2.27899 4.692843,3.3364 1.458893,1.05742 4.046594,2.96864 5.750447,4.24717 1.703853,1.27854 3.223033,2.32461 3.375955,2.32461 0.152923,0 0.278041,-0.87277 0.278041,-1.93949 0,-1.73689 -0.219303,-2.15879 -2.099376,-4.03887 -1.154658,-1.15465 -2.607047,-3.17323 -3.227532,-4.48571 -0.620485,-1.31249 -1.265767,-3.12143 -1.43396,-4.01987 -0.20836,-1.113 -0.147194,-1.63353 0.191953,-1.63353 0.273767,0 0.605563,0.34304 0.737325,0.76231 0.131762,0.41928 0.755371,2.03647 1.385798,3.59376 0.739386,1.82645 1.857227,3.54404 3.14937,4.83908 1.110279,1.11277 3.333387,2.6425 4.98756,3.43196 1.641431,0.78338 3.706336,2.18322 4.588676,3.11076 1.231692,1.29477 1.938799,1.68642 3.044798,1.68642 0.94908,0 2.082098,-0.483 3.321032,-1.41572 z m -10.119399,0.54451 c 0.29399,0 0.912136,-0.27611 1.373659,-0.61359 0.78379,-0.57312 0.670787,-0.68804 -1.713374,-1.74243 -1.403878,-0.62086 -2.626127,-1.12884 -2.716107,-1.12884 -0.08998,0 -0.163601,0.76972 -0.163601,1.71049 0,1.26322 0.199336,1.76226 0.762312,1.90846 0.419272,0.10888 1.023374,0.12325 1.342449,0.0319 0.319075,-0.0913 0.820673,-0.16603 1.114662,-0.16603 z m 18.859221,-2.85647 c 2.351574,-0.37314 5.647752,-0.99298 7.32484,-1.37741 1.677087,-0.38444 4.497676,-1.15727 6.267974,-1.71741 1.770298,-0.56013 3.83393,-1.01842 4.585851,-1.01842 0.75192,0 1.80279,-0.30515 2.335267,-0.67812 0.823882,-0.57706 0.967722,-1.0801 0.965336,-3.37595 -0.0015,-1.48382 0.226237,-6.03024 0.506175,-10.10317 0.440202,-6.404652 0.409686,-8.271255 -0.225834,-13.813582 -0.54186,-4.725529 -0.662971,-8.099894 -0.46122,-12.850412 0.220457,-5.191006 0.154319,-6.598306 -0.34055,-7.246203 -0.579126,-0.75821 -0.948031,-0.774534 -6.470159,-0.286294 -4.285263,0.378882 -6.966024,0.878044 -9.994287,1.860952 -3.438317,1.116003 -5.132936,1.390968 -10.018965,1.625654 -4.506217,0.216443 -6.401146,0.496906 -8.107436,1.199956 -1.224706,0.504621 -3.478134,1.144414 -5.007616,1.421762 -1.529483,0.277348 -2.920542,0.73025 -3.091242,1.006449 -0.1707,0.276199 -0.427883,1.483985 -0.571518,2.683968 -0.143634,1.199983 -0.08134,3.455938 0.138428,5.013233 0.225336,1.596736 0.24172,3.97118 0.03757,5.44509 -0.199107,1.437504 -0.494032,4.138741 -0.655389,6.002749 -0.168326,1.944504 -0.05847,5.658042 0.257717,8.712138 0.303102,2.92768 0.804851,5.8131 1.114999,6.41206 0.310147,0.59896 1.217704,1.70547 2.016793,2.4589 0.799089,0.75344 2.460606,1.87302 3.69226,2.48798 1.860901,0.92912 2.482715,1.0483 3.679221,0.70515 1.094385,-0.31387 1.680868,-0.25503 2.444382,0.24525 0.878952,0.57591 1.154167,0.58004 2.201476,0.0331 0.658319,-0.34382 2.052814,-1.24846 3.098878,-2.01031 1.721278,-1.2536 1.879895,-1.52098 1.669908,-2.81498 -0.155289,-0.95693 0.03249,-1.86478 0.567771,-2.74498 0.439889,-0.72333 2.160399,-2.41447 3.823355,-3.75808 1.662957,-1.34361 3.403149,-2.442922 3.867095,-2.442922 0.463945,0 1.550299,0.735082 2.41412,1.633522 0.863821,0.89844 2.079742,2.39597 2.702048,3.32785 0.622306,0.93187 1.131466,2.15511 1.131466,2.71831 0,0.72037 -0.613529,1.46943 -2.069134,2.52623 -1.138024,0.82622 -3.109687,2.13313 -4.381474,2.90424 -2.285121,1.38551 -2.330162,1.39352 -3.826342,0.68004 -0.8327,-0.39709 -1.693197,-0.72198 -1.912215,-0.72198 -0.219017,0 -1.584529,0.98727 -3.034471,2.19392 -1.449942,1.20665 -2.636258,2.54615 -2.636258,2.97665 0,0.4305 0.130682,0.91341 0.290405,1.07314 0.159722,0.15972 0.53898,0.2904 0.842794,0.2904 0.303815,0 2.476406,-0.3053 4.82798,-0.67844 z m -1.08216,-23.288297 c -0.790506,-0.481963 -1.318446,-1.068581 -1.173198,-1.303596 0.163381,-0.264357 0.744744,-0.178742 1.524554,0.224513 0.693257,0.358497 2.039256,0.651813 2.991107,0.651813 1.232365,0 2.12181,-0.329148 3.08928,-1.143221 0.747253,-0.628772 1.472591,-1.029272 1.611862,-0.890001 0.139271,0.139271 0.137574,0.554587 -0.0038,0.922924 -0.141344,0.368338 -0.900648,1.06214 -1.687341,1.541784 -0.801431,0.488629 -2.196491,0.872079 -3.17278,0.872079 -0.979075,0 -2.3721,-0.383903 -3.179714,-0.876295 z m -8.172155,-3.237388 c -0.42372,-0.646679 -0.584343,-1.430759 -0.407342,-1.98844 0.16073,-0.506413 0.716049,-1.077539 1.234044,-1.26917 0.532981,-0.197174 1.371799,-0.152512 1.932369,0.102888 0.544809,0.248219 1.107106,0.915658 1.249549,1.483198 0.168115,0.669825 -0.01208,1.331419 -0.513565,1.885552 -0.424905,0.469514 -1.227711,0.853662 -1.784016,0.853662 -0.592819,0 -1.301016,-0.441915 -1.711039,-1.06769 z m 19.65952,-2.230479 c -0.376489,-0.376489 -0.684526,-1.254075 -0.684526,-1.95019 0,-0.869357 0.340996,-1.489094 1.089018,-1.979217 1.00881,-0.660998 1.169226,-0.660998 2.178036,0 0.750108,0.491489 1.089018,1.109432 1.089018,1.985631 0,0.820718 -0.343517,1.512687 -0.96814,1.95019 -0.532477,0.372961 -1.204556,0.678111 -1.49351,0.678111 -0.288954,0 -0.833407,-0.308036 -1.209896,-0.684525 z M 46.17965,87.218459 c 0,-0.19981 -0.214834,-0.49607 -0.477409,-0.65835 -0.262574,-0.16228 -0.753333,0.0215 -1.090573,0.40835 -0.337241,0.38686 -0.377237,0.50807 -0.08888,0.26934 0.288356,-0.23873 0.705105,-0.43405 0.926108,-0.43405 0.221003,0 0.154072,0.29852 -0.148735,0.66338 -0.460343,0.55468 -0.433393,0.61843 0.164465,0.38901 0.393264,-0.15091 0.715025,-0.43787 0.715024,-0.63768 z m 2.560967,-1.88326 c 0.533722,-0.56813 1.633292,-1.38994 2.443488,-1.82626 1.428384,-0.76924 1.519087,-0.76853 2.989059,0.0231 1.515973,0.81641 1.515973,0.81641 5.020719,-1.48453 1.92761,-1.26551 3.710876,-2.5493 3.962813,-2.85286 0.336526,-0.40549 3.65e-4,-1.23736 -1.266924,-3.13514 -0.948745,-1.42075 -2.123418,-2.94376 -2.610384,-3.38446 -0.867329,-0.78492 -0.932224,-0.76508 -3.181002,0.97277 -1.262586,0.97571 -2.959575,2.46081 -3.771088,3.3002 -1.231153,1.27345 -1.431477,1.74617 -1.209762,2.85474 0.146142,0.73071 0.149446,1.63156 0.0073,2.00188 -0.142105,0.37032 -1.165898,1.28633 -2.275095,2.03559 -1.109197,0.74925 -2.085356,1.41548 -2.169243,1.48051 -0.08389,0.065 -0.02331,0.32729 0.13461,0.58282 0.157922,0.25552 0.437417,0.46459 0.621098,0.46459 0.183682,0 0.770648,-0.46483 1.30437,-1.03295 z m 6.831709,-2.84364 c -0.133154,-0.21544 0.449945,-0.99934 1.295775,-1.74199 0.84583,-0.74265 2.01982,-1.66605 2.608866,-2.05201 0.589046,-0.38596 1.393224,-0.57809 1.787062,-0.42696 0.655109,0.25139 0.650032,0.34775 -0.05965,1.13193 -0.426643,0.47144 -1.695632,1.44747 -2.819975,2.16896 -1.124344,0.72149 -2.162549,1.3118 -2.307122,1.3118 -0.144574,0 -0.371805,-0.17628 -0.504959,-0.39173 z m 3.059095,-1.85963 c 1.057,-0.75909 1.837566,-1.4644 1.734592,-1.56738 -0.102975,-0.10297 -1.110955,0.51809 -2.239954,1.38015 -1.129,0.86205 -1.909566,1.56737 -1.734592,1.56737 0.174974,0 1.182953,-0.62106 2.239954,-1.38014 z m -4.454402,-0.14732 c -0.145238,-0.37848 -0.190846,-0.74727 -0.101353,-0.81952 0.08949,-0.0723 1.302263,-1.04781 2.695042,-2.16791 1.392778,-1.1201 2.715935,-1.92306 2.940348,-1.78437 0.224413,0.1387 0.39997,0.48564 0.390126,0.77098 -0.0098,0.28534 -1.287391,1.45709 -2.838996,2.60389 -2.287915,1.691 -2.871008,1.95502 -3.085167,1.39693 z m 3.380348,-2.393 c 1.212386,-0.95834 2.061076,-1.74243 1.885977,-1.74243 -0.175098,0 -1.270828,0.72636 -2.434956,1.61413 -1.164127,0.88778 -2.116595,1.67187 -2.116595,1.74243 0,0.0706 0.103778,0.1283 0.230619,0.1283 0.12684,0 1.22257,-0.7841 2.434955,-1.74243 z m -5.061413,0.4356 c -0.148071,-0.23958 -0.139812,-0.64499 0.01835,-0.90091 0.158165,-0.25591 0.559167,-0.36108 0.891115,-0.2337 0.331949,0.12738 1.056815,-0.2023 1.610814,-0.73262 0.554,-0.53032 0.70363,-0.749 0.332512,-0.48596 -0.371118,0.26304 -0.968794,0.61928 -1.32817,0.79165 -0.359376,0.17236 0.228694,-0.48334 1.306821,-1.45711 1.078128,-0.97378 2.144004,-1.70982 2.368614,-1.63564 0.22461,0.0742 0.474946,0.33456 0.556302,0.57863 0.08136,0.24407 -1.016971,1.35895 -2.440727,2.47751 -1.423756,1.11857 -2.691645,2.03376 -2.817531,2.03376 -0.125886,0 -0.350033,-0.19602 -0.498104,-0.43561 z m 4.791679,-3.48485 c 0.148071,-0.23959 0.0732,-0.43561 -0.166387,-0.43561 -0.239584,0 -0.556757,0.19602 -0.704828,0.43561 -0.148071,0.23958 -0.0732,0.4356 0.166387,0.4356 0.239584,0 0.556757,-0.19602 0.704828,-0.4356 z m 32.788414,5.19684 c 0.735294,-0.25632 1.461295,-0.79021 1.613336,-1.18642 0.167122,-0.43552 -0.02425,-0.94025 -0.48394,-1.27639 -0.418207,-0.3058 -1.672646,-0.556 -2.787642,-0.556 -1.50481,0 -2.240148,0.23524 -2.853307,0.91277 -0.81407,0.89954 -0.811192,0.92479 0.198548,1.74243 0.563525,0.45631 1.463681,0.82966 2.000347,0.82966 0.536666,0 1.577363,-0.20972 2.312658,-0.46605 z m -3.820539,-4.17958 c 0.819337,-0.46156 0.873273,-0.56349 0.217804,-0.41159 -0.479168,0.11104 -1.753319,0.3363 -2.831447,0.50057 -1.078127,0.16427 -2.232095,0.44643 -2.564372,0.62702 -0.332277,0.18059 0.451815,0.2314 1.742428,0.11292 1.290613,-0.11849 2.836628,-0.4915 3.435587,-0.82892 z m 27.379212,0.24238 c 1.76166,-0.25642 4.30971,-0.84698 5.66234,-1.31236 1.35263,-0.46537 3.21264,-1.34465 4.13337,-1.95396 0.92073,-0.60931 1.56934,-1.21255 1.44136,-1.34053 -0.12798,-0.127981 -0.78304,0.15831 -1.45569,0.63621 -0.67265,0.4779 -1.94085,1.16816 -2.81821,1.53391 -0.87737,0.36575 -3.13163,1.01935 -5.00948,1.45244 -2.30808,0.53231 -5.20172,0.79169 -8.93125,0.80055 -4.95471,0.0118 -5.6447,-0.0813 -6.770314,-0.91314 -0.98312,-0.72655 -1.615258,-0.86742 -2.931909,-0.65341 -0.923208,0.15006 -1.655317,0.46887 -1.62691,0.70845 0.02841,0.23958 1.18409,0.58268 2.568183,0.76243 1.384093,0.17975 3.49665,0.47504 4.69457,0.6562 1.19792,0.18116 3.45218,0.27539 5.00948,0.2094 1.55729,-0.066 4.2728,-0.32977 6.03446,-0.58619 z m -19.538281,-0.83096 c 0,-0.70742 -0.254042,-0.85877 -1.306822,-0.77855 -0.734297,0.0559 -1.306821,0.34888 -1.306821,0.66863 0,0.38947 0.34367,0.48279 1.089017,0.29572 0.671011,-0.16841 1.089018,-0.088 1.089018,0.20951 0,0.26555 0.09801,0.48283 0.217804,0.48283 0.119792,0 0.217804,-0.39516 0.217804,-0.87814 z m -9.190453,-0.89126 c 2.305344,-0.35038 2.915354,-0.30926 3.519157,0.23717 0.401727,0.36356 0.939035,0.66101 1.194017,0.66101 0.254982,0 0.569124,-0.27498 0.698093,-0.61107 0.12897,-0.33609 -0.03047,-0.97316 -0.354315,-1.41572 -0.473009,-0.64641 -1.080727,-0.78365 -3.090147,-0.69786 -2.172039,0.0927 -2.85044,-0.0944 -5.153071,-1.421601 -1.458451,-0.840614 -3.043776,-1.811767 -3.522944,-2.158118 -0.850305,-0.614615 -0.867903,-0.559586 -0.733256,2.292813 0.09911,2.099656 0.344417,3.084606 0.871215,3.498126 0.469191,0.36831 1.282312,0.47899 2.25788,0.30734 0.838544,-0.14754 2.779561,-0.45898 4.313371,-0.69209 z m 20.387754,-4.157196 c 2.34671,-0.809015 3.95608,-1.472689 3.57638,-1.474832 -0.3797,-0.0021 -1.94789,0.408709 -3.48486,0.913002 -1.53697,0.504294 -3.29882,1.177451 -3.91523,1.495903 -0.61641,0.318453 -1.39712,0.934973 -1.734918,1.370043 -0.567256,0.7306 -0.54137,0.72899 0.338848,-0.0211 0.52417,-0.44666 2.87307,-1.474029 5.21978,-2.283045 z m 6.34417,-1.764458 c -0.29492,-0.119323 -0.88299,-0.126587 -1.30682,-0.01614 -0.42383,0.110445 -0.18253,0.208073 0.53622,0.21695 0.71875,0.0089 1.06552,-0.08149 0.7706,-0.20081 z m 8.05045,-0.471785 c -1.37761,-0.08645 -3.63188,-0.08645 -5.00949,0 -1.3776,0.08645 -0.25047,0.157175 2.50475,0.157175 2.75521,0 3.88234,-0.07073 2.50474,-0.157175 z"
       id="path29" /></g></svg>
